<svg version="1.1" xmlns="https://www.w3.org/2000/svg" width="500.00" height="500.00">
	<line x1="250.00" y1="250.00" x2="251.00" y2="247.00" stroke="rgb(0,0,0)" stroke-width="4.00"/>
	<line x1="251.00" y1="247.00" x2="252.00" y2="244.00" stroke="rgb(0,0,0)" stroke-width="4.00"/>
	<line x1="252.00" y1="244.00" x2="253.00" y2="241.01" stroke="rgb(0,0,0)" stroke-width="4.00"/>
	<line x1="253.00" y1="241.01" x2="254.00" y2="238.04" stroke="rgb(0,0,0)" stroke-width="4.00"/>
	<line x1="254.00" y1="238.04" x2="255.00" y2="235.07" stroke="rgb(0,0,0)" stroke-width="4.00"/>
	<line x1="255.00" y1="235.07" x2="256.00" y2="232.12" stroke="rgb(0,0,0)" stroke-width="4.00"/>
	<line x1="256.00" y1="232.12" x2="257.00" y2="229.19" stroke="rgb(0,0,0)" stroke-width="4.00"/>
	<line x1="257.00" y1="229.19" x2="258.00" y2="226.28" stroke="rgb(0,0,0)" stroke-width="4.00"/>
	<line x1="258.00" y1="226.28" x2="259.00" y2="223.40" stroke="rgb(0,0,0)" stroke-width="4.00"/>
	<line x1="259.00" y1="223.40" x2="260.00" y2="220.55" stroke="rgb(0,0,0)" stroke-width="4.00"/>
	<line x1="260.00" y1="220.55" x2="261.00" y2="217.73" stroke="rgb(0,0,0)" stroke-width="4.00"/>
	<line x1="261.00" y1="217.73" x2="262.00" y2="214.95" stroke="rgb(0,0,0)" stroke-width="4.00"/>
	<line x1="262.00" y1="214.95" x2="263.00" y2="212.21" stroke="rgb(0,0,0)" stroke-width="4.00"/>
	<line x1="263.00" y1="212.21" x2="264.00" y2="209.51" stroke="rgb(0,0,0)" stroke-width="4.00"/>
	<line x1="264.00" y1="209.51" x2="265.00" y2="206.85" stroke="rgb(0,0,0)" stroke-width="4.00"/>
	<line x1="265.00" y1="206.85" x2="266.00" y2="204.24" stroke="rgb(0,0,0)" stroke-width="4.00"/>
	<line x1="266.00" y1="204.24" x2="267.00" y2="201.69" stroke="rgb(0,0,0)" stroke-width="4.00"/>
	<line x1="267.00" y1="201.69" x2="268.00" y2="199.18" stroke="rgb(0,0,0)" stroke-width="4.00"/>
	<line x1="268.00" y1="199.18" x2="269.00" y2="196.73" stroke="rgb(0,0,0)" stroke-width="4.00"/>
	<line x1="269.00" y1="196.73" x2="270.00" y2="194.35" stroke="rgb(0,0,0)" stroke-width="4.00"/>
	<line x1="270.00" y1="194.35" x2="271.00" y2="192.02" stroke="rgb(0,0,0)" stroke-width="4.00"/>
	<line x1="271.00" y1="192.02" x2="272.00" y2="189.76" stroke="rgb(0,0,0)" stroke-width="4.00"/>
	<line x1="272.00" y1="189.76" x2="273.00" y2="187.56" stroke="rgb(0,0,0)" stroke-width="4.00"/>
	<line x1="273.00" y1="187.56" x2="274.00" y2="185.44" stroke="rgb(0,0,0)" stroke-width="4.00"/>
	<line x1="274.00" y1="185.44" x2="275.00" y2="183.38" stroke="rgb(0,0,0)" stroke-width="4.00"/>
	<line x1="275.00" y1="183.38" x2="276.00" y2="181.40" stroke="rgb(0,0,0)" stroke-width="4.00"/>
	<line x1="276.00" y1="181.40" x2="277.00" y2="179.50" stroke="rgb(0,0,0)" stroke-width="4.00"/>
	<line x1="277.00" y1="179.50" x2="278.00" y2="177.68" stroke="rgb(0,0,0)" stroke-width="4.00"/>
	<line x1="278.00" y1="177.68" x2="279.00" y2="175.93" stroke="rgb(0,0,0)" stroke-width="4.00"/>
	<line x1="279.00" y1="175.93" x2="280.00" y2="174.27" stroke="rgb(0,0,0)" stroke-width="4.00"/>
	<line x1="280.00" y1="174.27" x2="281.00" y2="172.69" stroke="rgb(0,0,0)" stroke-width="4.00"/>
	<line x1="281.00" y1="172.69" x2="282.00" y2="171.20" stroke="rgb(0,0,0)" stroke-width="4.00"/>
	<line x1="282.00" y1="171.20" x2="283.00" y2="169.79" stroke="rgb(0,0,0)" stroke-width="4.00"/>
	<line x1="283.00" y1="169.79" x2="284.00" y2="168.48" stroke="rgb(0,0,0)" stroke-width="4.00"/>
	<line x1="284.00" y1="168.48" x2="285.00" y2="167.25" stroke="rgb(0,0,0)" stroke-width="4.00"/>
	<line x1="285.00" y1="167.25" x2="286.00" y2="166.12" stroke="rgb(0,0,0)" stroke-width="4.00"/>
	<line x1="286.00" y1="166.12" x2="287.00" y2="165.08" stroke="rgb(0,0,0)" stroke-width="4.00"/>
	<line x1="287.00" y1="165.08" x2="288.00" y2="164.13" stroke="rgb(0,0,0)" stroke-width="4.00"/>
	<line x1="288.00" y1="164.13" x2="289.00" y2="163.28" stroke="rgb(0,0,0)" stroke-width="4.00"/>
	<line x1="289.00" y1="163.28" x2="290.00" y2="162.53" stroke="rgb(0,0,0)" stroke-width="4.00"/>
	<line x1="290.00" y1="162.53" x2="291.00" y2="161.87" stroke="rgb(0,0,0)" stroke-width="4.00"/>
	<line x1="291.00" y1="161.87" x2="292.00" y2="161.31" stroke="rgb(0,0,0)" stroke-width="4.00"/>
	<line x1="292.00" y1="161.31" x2="293.00" y2="160.85" stroke="rgb(0,0,0)" stroke-width="4.00"/>
	<line x1="293.00" y1="160.85" x2="294.00" y2="160.49" stroke="rgb(0,0,0)" stroke-width="4.00"/>
	<line x1="294.00" y1="160.49" x2="295.00" y2="160.23" stroke="rgb(0,0,0)" stroke-width="4.00"/>
	<line x1="295.00" y1="160.23" x2="296.00" y2="160.06" stroke="rgb(0,0,0)" stroke-width="4.00"/>
	<line x1="296.00" y1="160.06" x2="297.00" y2="160.00" stroke="rgb(0,0,0)" stroke-width="4.00"/>
	<line x1="297.00" y1="160.00" x2="298.00" y2="160.04" stroke="rgb(0,0,0)" stroke-width="4.00"/>
	<line x1="298.00" y1="160.04" x2="299.00" y2="160.18" stroke="rgb(0,0,0)" stroke-width="4.00"/>
	<line x1="299.00" y1="160.18" x2="300.00" y2="160.41" stroke="rgb(0,0,0)" stroke-width="4.00"/>
	<line x1="300.00" y1="160.41" x2="301.00" y2="160.75" stroke="rgb(0,0,0)" stroke-width="4.00"/>
	<line x1="301.00" y1="160.75" x2="302.00" y2="161.19" stroke="rgb(0,0,0)" stroke-width="4.00"/>
	<line x1="302.00" y1="161.19" x2="303.00" y2="161.72" stroke="rgb(0,0,0)" stroke-width="4.00"/>
	<line x1="303.00" y1="161.72" x2="304.00" y2="162.35" stroke="rgb(0,0,0)" stroke-width="4.00"/>
	<line x1="304.00" y1="162.35" x2="305.00" y2="163.08" stroke="rgb(0,0,0)" stroke-width="4.00"/>
	<line x1="305.00" y1="163.08" x2="306.00" y2="163.91" stroke="rgb(0,0,0)" stroke-width="4.00"/>
	<line x1="306.00" y1="163.91" x2="307.00" y2="164.83" stroke="rgb(0,0,0)" stroke-width="4.00"/>
	<line x1="307.00" y1="164.83" x2="308.00" y2="165.85" stroke="rgb(0,0,0)" stroke-width="4.00"/>
	<line x1="308.00" y1="165.85" x2="309.00" y2="166.96" stroke="rgb(0,0,0)" stroke-width="4.00"/>
	<line x1="309.00" y1="166.96" x2="310.00" y2="168.16" stroke="rgb(0,0,0)" stroke-width="4.00"/>
	<line x1="310.00" y1="168.16" x2="311.00" y2="169.46" stroke="rgb(0,0,0)" stroke-width="4.00"/>
	<line x1="311.00" y1="169.46" x2="312.00" y2="170.84" stroke="rgb(0,0,0)" stroke-width="4.00"/>
	<line x1="312.00" y1="170.84" x2="313.00" y2="172.31" stroke="rgb(0,0,0)" stroke-width="4.00"/>
	<line x1="313.00" y1="172.31" x2="314.00" y2="173.87" stroke="rgb(0,0,0)" stroke-width="4.00"/>
	<line x1="314.00" y1="173.87" x2="315.00" y2="175.51" stroke="rgb(0,0,0)" stroke-width="4.00"/>
	<line x1="315.00" y1="175.51" x2="316.00" y2="177.24" stroke="rgb(0,0,0)" stroke-width="4.00"/>
	<line x1="316.00" y1="177.24" x2="317.00" y2="179.04" stroke="rgb(0,0,0)" stroke-width="4.00"/>
	<line x1="317.00" y1="179.04" x2="318.00" y2="180.93" stroke="rgb(0,0,0)" stroke-width="4.00"/>
	<line x1="318.00" y1="180.93" x2="319.00" y2="182.89" stroke="rgb(0,0,0)" stroke-width="4.00"/>
	<line x1="319.00" y1="182.89" x2="320.00" y2="184.92" stroke="rgb(0,0,0)" stroke-width="4.00"/>
	<line x1="320.00" y1="184.92" x2="321.00" y2="187.03" stroke="rgb(0,0,0)" stroke-width="4.00"/>
	<line x1="321.00" y1="187.03" x2="322.00" y2="189.21" stroke="rgb(0,0,0)" stroke-width="4.00"/>
	<line x1="322.00" y1="189.21" x2="323.00" y2="191.45" stroke="rgb(0,0,0)" stroke-width="4.00"/>
	<line x1="323.00" y1="191.45" x2="324.00" y2="193.76" stroke="rgb(0,0,0)" stroke-width="4.00"/>
	<line x1="324.00" y1="193.76" x2="325.00" y2="196.14" stroke="rgb(0,0,0)" stroke-width="4.00"/>
	<line x1="325.00" y1="196.14" x2="326.00" y2="198.57" stroke="rgb(0,0,0)" stroke-width="4.00"/>
	<line x1="326.00" y1="198.57" x2="327.00" y2="201.06" stroke="rgb(0,0,0)" stroke-width="4.00"/>
	<line x1="327.00" y1="201.06" x2="328.00" y2="203.60" stroke="rgb(0,0,0)" stroke-width="4.00"/>
	<line x1="328.00" y1="203.60" x2="329.00" y2="206.20" stroke="rgb(0,0,0)" stroke-width="4.00"/>
	<line x1="329.00" y1="206.20" x2="330.00" y2="208.85" stroke="rgb(0,0,0)" stroke-width="4.00"/>
	<line x1="330.00" y1="208.85" x2="331.00" y2="211.54" stroke="rgb(0,0,0)" stroke-width="4.00"/>
	<line x1="331.00" y1="211.54" x2="332.00" y2="214.27" stroke="rgb(0,0,0)" stroke-width="4.00"/>
	<line x1="332.00" y1="214.27" x2="333.00" y2="217.04" stroke="rgb(0,0,0)" stroke-width="4.00"/>
	<line x1="333.00" y1="217.04" x2="334.00" y2="219.85" stroke="rgb(0,0,0)" stroke-width="4.00"/>
	<line x1="334.00" y1="219.85" x2="335.00" y2="222.69" stroke="rgb(0,0,0)" stroke-width="4.00"/>
	<line x1="335.00" y1="222.69" x2="336.00" y2="225.57" stroke="rgb(0,0,0)" stroke-width="4.00"/>
	<line x1="336.00" y1="225.57" x2="337.00" y2="228.47" stroke="rgb(0,0,0)" stroke-width="4.00"/>
	<line x1="337.00" y1="228.47" x2="338.00" y2="231.39" stroke="rgb(0,0,0)" stroke-width="4.00"/>
	<line x1="338.00" y1="231.39" x2="339.00" y2="234.34" stroke="rgb(0,0,0)" stroke-width="4.00"/>
	<line x1="339.00" y1="234.34" x2="340.00" y2="237.30" stroke="rgb(0,0,0)" stroke-width="4.00"/>
	<line x1="340.00" y1="237.30" x2="341.00" y2="240.28" stroke="rgb(0,0,0)" stroke-width="4.00"/>
	<line x1="341.00" y1="240.28" x2="342.00" y2="243.26" stroke="rgb(0,0,0)" stroke-width="4.00"/>
	<line x1="342.00" y1="243.26" x2="343.00" y2="246.26" stroke="rgb(0,0,0)" stroke-width="4.00"/>
	<line x1="343.00" y1="246.26" x2="344.00" y2="249.26" stroke="rgb(0,0,0)" stroke-width="4.00"/>
	<line x1="344.00" y1="249.26" x2="345.00" y2="252.26" stroke="rgb(0,0,0)" stroke-width="4.00"/>
	<line x1="345.00" y1="252.26" x2="346.00" y2="255.25" stroke="rgb(0,0,0)" stroke-width="4.00"/>
	<line x1="346.00" y1="255.25" x2="347.00" y2="258.25" stroke="rgb(0,0,0)" stroke-width="4.00"/>
	<line x1="347.00" y1="258.25" x2="348.00" y2="261.23" stroke="rgb(0,0,0)" stroke-width="4.00"/>
	<line x1="348.00" y1="261.23" x2="349.00" y2="264.20" stroke="rgb(0,0,0)" stroke-width="4.00"/>
	<line x1="349.00" y1="264.20" x2="350.00" y2="267.15" stroke="rgb(0,0,0)" stroke-width="4.00"/>
	<line x1="350.00" y1="267.15" x2="351.00" y2="270.09" stroke="rgb(0,0,0)" stroke-width="4.00"/>
	<line x1="351.00" y1="270.09" x2="352.00" y2="273.00" stroke="rgb(0,0,0)" stroke-width="4.00"/>
	<line x1="352.00" y1="273.00" x2="353.00" y2="275.89" stroke="rgb(0,0,0)" stroke-width="4.00"/>
	<line x1="353.00" y1="275.89" x2="354.00" y2="278.74" stroke="rgb(0,0,0)" stroke-width="4.00"/>
	<line x1="354.00" y1="278.74" x2="355.00" y2="281.57" stroke="rgb(0,0,0)" stroke-width="4.00"/>
	<line x1="355.00" y1="281.57" x2="356.00" y2="284.36" stroke="rgb(0,0,0)" stroke-width="4.00"/>
	<line x1="356.00" y1="284.36" x2="357.00" y2="287.11" stroke="rgb(0,0,0)" stroke-width="4.00"/>
	<line x1="357.00" y1="287.11" x2="358.00" y2="289.83" stroke="rgb(0,0,0)" stroke-width="4.00"/>
	<line x1="358.00" y1="289.83" x2="359.00" y2="292.49" stroke="rgb(0,0,0)" stroke-width="4.00"/>
	<line x1="359.00" y1="292.49" x2="360.00" y2="295.11" stroke="rgb(0,0,0)" stroke-width="4.00"/>
	<line x1="360.00" y1="295.11" x2="361.00" y2="297.69" stroke="rgb(0,0,0)" stroke-width="4.00"/>
	<line x1="361.00" y1="297.69" x2="362.00" y2="300.20" stroke="rgb(0,0,0)" stroke-width="4.00"/>
	<line x1="362.00" y1="300.20" x2="363.00" y2="302.66" stroke="rgb(0,0,0)" stroke-width="4.00"/>
	<line x1="363.00" y1="302.66" x2="364.00" y2="305.07" stroke="rgb(0,0,0)" stroke-width="4.00"/>
	<line x1="364.00" y1="305.07" x2="365.00" y2="307.41" stroke="rgb(0,0,0)" stroke-width="4.00"/>
	<line x1="365.00" y1="307.41" x2="366.00" y2="309.69" stroke="rgb(0,0,0)" stroke-width="4.00"/>
	<line x1="366.00" y1="309.69" x2="367.00" y2="311.90" stroke="rgb(0,0,0)" stroke-width="4.00"/>
	<line x1="367.00" y1="311.90" x2="368.00" y2="314.04" stroke="rgb(0,0,0)" stroke-width="4.00"/>
	<line x1="368.00" y1="314.04" x2="369.00" y2="316.11" stroke="rgb(0,0,0)" stroke-width="4.00"/>
	<line x1="369.00" y1="316.11" x2="370.00" y2="318.11" stroke="rgb(0,0,0)" stroke-width="4.00"/>
	<line x1="370.00" y1="318.11" x2="371.00" y2="320.03" stroke="rgb(0,0,0)" stroke-width="4.00"/>
	<line x1="371.00" y1="320.03" x2="372.00" y2="321.88" stroke="rgb(0,0,0)" stroke-width="4.00"/>
	<line x1="372.00" y1="321.88" x2="373.00" y2="323.64" stroke="rgb(0,0,0)" stroke-width="4.00"/>
	<line x1="373.00" y1="323.64" x2="374.00" y2="325.33" stroke="rgb(0,0,0)" stroke-width="4.00"/>
	<line x1="374.00" y1="325.33" x2="375.00" y2="326.93" stroke="rgb(0,0,0)" stroke-width="4.00"/>
	<line x1="375.00" y1="326.93" x2="376.00" y2="328.44" stroke="rgb(0,0,0)" stroke-width="4.00"/>
	<line x1="376.00" y1="328.44" x2="377.00" y2="329.87" stroke="rgb(0,0,0)" stroke-width="4.00"/>
	<line x1="377.00" y1="329.87" x2="378.00" y2="331.21" stroke="rgb(0,0,0)" stroke-width="4.00"/>
	<line x1="378.00" y1="331.21" x2="379.00" y2="332.45" stroke="rgb(0,0,0)" stroke-width="4.00"/>
	<line x1="379.00" y1="332.45" x2="380.00" y2="333.61" stroke="rgb(0,0,0)" stroke-width="4.00"/>
	<line x1="380.00" y1="333.61" x2="381.00" y2="334.67" stroke="rgb(0,0,0)" stroke-width="4.00"/>
	<line x1="381.00" y1="334.67" x2="382.00" y2="335.64" stroke="rgb(0,0,0)" stroke-width="4.00"/>
	<line x1="382.00" y1="335.64" x2="383.00" y2="336.52" stroke="rgb(0,0,0)" stroke-width="4.00"/>
	<line x1="383.00" y1="336.52" x2="384.00" y2="337.30" stroke="rgb(0,0,0)" stroke-width="4.00"/>
	<line x1="384.00" y1="337.30" x2="385.00" y2="337.98" stroke="rgb(0,0,0)" stroke-width="4.00"/>
	<line x1="385.00" y1="337.98" x2="386.00" y2="338.56" stroke="rgb(0,0,0)" stroke-width="4.00"/>
	<line x1="386.00" y1="338.56" x2="387.00" y2="339.05" stroke="rgb(0,0,0)" stroke-width="4.00"/>
	<line x1="387.00" y1="339.05" x2="388.00" y2="339.43" stroke="rgb(0,0,0)" stroke-width="4.00"/>
	<line x1="388.00" y1="339.43" x2="389.00" y2="339.72" stroke="rgb(0,0,0)" stroke-width="4.00"/>
	<line x1="389.00" y1="339.72" x2="390.00" y2="339.91" stroke="rgb(0,0,0)" stroke-width="4.00"/>
	<line x1="390.00" y1="339.91" x2="391.00" y2="339.99" stroke="rgb(0,0,0)" stroke-width="4.00"/>
	<line x1="391.00" y1="339.99" x2="392.00" y2="339.98" stroke="rgb(0,0,0)" stroke-width="4.00"/>
	<line x1="392.00" y1="339.98" x2="393.00" y2="339.87" stroke="rgb(0,0,0)" stroke-width="4.00"/>
	<line x1="393.00" y1="339.87" x2="394.00" y2="339.65" stroke="rgb(0,0,0)" stroke-width="4.00"/>
	<line x1="394.00" y1="339.65" x2="395.00" y2="339.34" stroke="rgb(0,0,0)" stroke-width="4.00"/>
	<line x1="395.00" y1="339.34" x2="396.00" y2="338.93" stroke="rgb(0,0,0)" stroke-width="4.00"/>
	<line x1="396.00" y1="338.93" x2="397.00" y2="338.42" stroke="rgb(0,0,0)" stroke-width="4.00"/>
	<line x1="397.00" y1="338.42" x2="398.00" y2="337.81" stroke="rgb(0,0,0)" stroke-width="4.00"/>
	<line x1="398.00" y1="337.81" x2="399.00" y2="337.11" stroke="rgb(0,0,0)" stroke-width="4.00"/>
	<line x1="399.00" y1="337.11" x2="400.00" y2="336.30" stroke="rgb(0,0,0)" stroke-width="4.00"/>
	<line x1="400.00" y1="336.30" x2="401.00" y2="335.40" stroke="rgb(0,0,0)" stroke-width="4.00"/>
	<line x1="401.00" y1="335.40" x2="402.00" y2="334.41" stroke="rgb(0,0,0)" stroke-width="4.00"/>
	<line x1="402.00" y1="334.41" x2="403.00" y2="333.32" stroke="rgb(0,0,0)" stroke-width="4.00"/>
	<line x1="403.00" y1="333.32" x2="404.00" y2="332.14" stroke="rgb(0,0,0)" stroke-width="4.00"/>
	<line x1="404.00" y1="332.14" x2="405.00" y2="330.87" stroke="rgb(0,0,0)" stroke-width="4.00"/>
	<line x1="405.00" y1="330.87" x2="406.00" y2="329.51" stroke="rgb(0,0,0)" stroke-width="4.00"/>
	<line x1="406.00" y1="329.51" x2="407.00" y2="328.06" stroke="rgb(0,0,0)" stroke-width="4.00"/>
	<line x1="407.00" y1="328.06" x2="408.00" y2="326.53" stroke="rgb(0,0,0)" stroke-width="4.00"/>
	<line x1="408.00" y1="326.53" x2="409.00" y2="324.90" stroke="rgb(0,0,0)" stroke-width="4.00"/>
	<line x1="409.00" y1="324.90" x2="410.00" y2="323.20" stroke="rgb(0,0,0)" stroke-width="4.00"/>
	<line x1="410.00" y1="323.20" x2="411.00" y2="321.41" stroke="rgb(0,0,0)" stroke-width="4.00"/>
	<line x1="411.00" y1="321.41" x2="412.00" y2="319.55" stroke="rgb(0,0,0)" stroke-width="4.00"/>
	<line x1="412.00" y1="319.55" x2="413.00" y2="317.61" stroke="rgb(0,0,0)" stroke-width="4.00"/>
	<line x1="413.00" y1="317.61" x2="414.00" y2="315.59" stroke="rgb(0,0,0)" stroke-width="4.00"/>
	<line x1="414.00" y1="315.59" x2="415.00" y2="313.50" stroke="rgb(0,0,0)" stroke-width="4.00"/>
	<line x1="415.00" y1="313.50" x2="416.00" y2="311.34" stroke="rgb(0,0,0)" stroke-width="4.00"/>
	<line x1="416.00" y1="311.34" x2="417.00" y2="309.11" stroke="rgb(0,0,0)" stroke-width="4.00"/>
	<line x1="417.00" y1="309.11" x2="418.00" y2="306.81" stroke="rgb(0,0,0)" stroke-width="4.00"/>
	<line x1="418.00" y1="306.81" x2="419.00" y2="304.46" stroke="rgb(0,0,0)" stroke-width="4.00"/>
	<line x1="419.00" y1="304.46" x2="420.00" y2="302.04" stroke="rgb(0,0,0)" stroke-width="4.00"/>
	<line x1="420.00" y1="302.04" x2="421.00" y2="299.56" stroke="rgb(0,0,0)" stroke-width="4.00"/>
	<line x1="421.00" y1="299.56" x2="422.00" y2="297.03" stroke="rgb(0,0,0)" stroke-width="4.00"/>
	<line x1="422.00" y1="297.03" x2="423.00" y2="294.45" stroke="rgb(0,0,0)" stroke-width="4.00"/>
	<line x1="423.00" y1="294.45" x2="424.00" y2="291.81" stroke="rgb(0,0,0)" stroke-width="4.00"/>
	<line x1="424.00" y1="291.81" x2="425.00" y2="289.13" stroke="rgb(0,0,0)" stroke-width="4.00"/>
	<line x1="425.00" y1="289.13" x2="426.00" y2="286.41" stroke="rgb(0,0,0)" stroke-width="4.00"/>
	<line x1="426.00" y1="286.41" x2="427.00" y2="283.65" stroke="rgb(0,0,0)" stroke-width="4.00"/>
	<line x1="427.00" y1="283.65" x2="428.00" y2="280.85" stroke="rgb(0,0,0)" stroke-width="4.00"/>
	<line x1="428.00" y1="280.85" x2="429.00" y2="278.01" stroke="rgb(0,0,0)" stroke-width="4.00"/>
	<line x1="429.00" y1="278.01" x2="430.00" y2="275.15" stroke="rgb(0,0,0)" stroke-width="4.00"/>
	<line x1="430.00" y1="275.15" x2="431.00" y2="272.25" stroke="rgb(0,0,0)" stroke-width="4.00"/>
	<line x1="431.00" y1="272.25" x2="432.00" y2="269.33" stroke="rgb(0,0,0)" stroke-width="4.00"/>
	<line x1="432.00" y1="269.33" x2="433.00" y2="266.39" stroke="rgb(0,0,0)" stroke-width="4.00"/>
	<line x1="433.00" y1="266.39" x2="434.00" y2="263.44" stroke="rgb(0,0,0)" stroke-width="4.00"/>
	<line x1="434.00" y1="263.44" x2="435.00" y2="260.46" stroke="rgb(0,0,0)" stroke-width="4.00"/>
	<line x1="435.00" y1="260.46" x2="436.00" y2="257.48" stroke="rgb(0,0,0)" stroke-width="4.00"/>
	<line x1="436.00" y1="257.48" x2="438.00" y2="251.49" stroke="rgb(0,0,0)" stroke-width="4.00"/>
	<line x1="437.00" y1="254.48" x2="438.00" y2="251.49" stroke="rgb(0,0,0)" stroke-width="4.00"/>
	<line x1="250.00" y1="250.00" x2="249.00" y2="253.00" stroke="rgb(0,0,0)" stroke-width="4.00"/>
	<line x1="249.00" y1="253.00" x2="248.00" y2="256.00" stroke="rgb(0,0,0)" stroke-width="4.00"/>
	<line x1="248.00" y1="256.00" x2="247.00" y2="258.99" stroke="rgb(0,0,0)" stroke-width="4.00"/>
	<line x1="247.00" y1="258.99" x2="246.00" y2="261.96" stroke="rgb(0,0,0)" stroke-width="4.00"/>
	<line x1="246.00" y1="261.96" x2="245.00" y2="264.93" stroke="rgb(0,0,0)" stroke-width="4.00"/>
	<line x1="245.00" y1="264.93" x2="244.00" y2="267.88" stroke="rgb(0,0,0)" stroke-width="4.00"/>
	<line x1="244.00" y1="267.88" x2="243.00" y2="270.81" stroke="rgb(0,0,0)" stroke-width="4.00"/>
	<line x1="243.00" y1="270.81" x2="242.00" y2="273.72" stroke="rgb(0,0,0)" stroke-width="4.00"/>
	<line x1="242.00" y1="273.72" x2="241.00" y2="276.60" stroke="rgb(0,0,0)" stroke-width="4.00"/>
	<line x1="241.00" y1="276.60" x2="240.00" y2="279.45" stroke="rgb(0,0,0)" stroke-width="4.00"/>
	<line x1="240.00" y1="279.45" x2="239.00" y2="282.27" stroke="rgb(0,0,0)" stroke-width="4.00"/>
	<line x1="239.00" y1="282.27" x2="238.00" y2="285.05" stroke="rgb(0,0,0)" stroke-width="4.00"/>
	<line x1="238.00" y1="285.05" x2="237.00" y2="287.79" stroke="rgb(0,0,0)" stroke-width="4.00"/>
	<line x1="237.00" y1="287.79" x2="236.00" y2="290.49" stroke="rgb(0,0,0)" stroke-width="4.00"/>
	<line x1="236.00" y1="290.49" x2="235.00" y2="293.15" stroke="rgb(0,0,0)" stroke-width="4.00"/>
	<line x1="235.00" y1="293.15" x2="234.00" y2="295.76" stroke="rgb(0,0,0)" stroke-width="4.00"/>
	<line x1="234.00" y1="295.76" x2="233.00" y2="298.31" stroke="rgb(0,0,0)" stroke-width="4.00"/>
	<line x1="233.00" y1="298.31" x2="232.00" y2="300.82" stroke="rgb(0,0,0)" stroke-width="4.00"/>
	<line x1="232.00" y1="300.82" x2="231.00" y2="303.27" stroke="rgb(0,0,0)" stroke-width="4.00"/>
	<line x1="231.00" y1="303.27" x2="230.00" y2="305.65" stroke="rgb(0,0,0)" stroke-width="4.00"/>
	<line x1="230.00" y1="305.65" x2="229.00" y2="307.98" stroke="rgb(0,0,0)" stroke-width="4.00"/>
	<line x1="229.00" y1="307.98" x2="228.00" y2="310.24" stroke="rgb(0,0,0)" stroke-width="4.00"/>
	<line x1="228.00" y1="310.24" x2="227.00" y2="312.44" stroke="rgb(0,0,0)" stroke-width="4.00"/>
	<line x1="227.00" y1="312.44" x2="226.00" y2="314.56" stroke="rgb(0,0,0)" stroke-width="4.00"/>
	<line x1="226.00" y1="314.56" x2="225.00" y2="316.62" stroke="rgb(0,0,0)" stroke-width="4.00"/>
	<line x1="225.00" y1="316.62" x2="224.00" y2="318.60" stroke="rgb(0,0,0)" stroke-width="4.00"/>
	<line x1="224.00" y1="318.60" x2="223.00" y2="320.50" stroke="rgb(0,0,0)" stroke-width="4.00"/>
	<line x1="223.00" y1="320.50" x2="222.00" y2="322.32" stroke="rgb(0,0,0)" stroke-width="4.00"/>
	<line x1="222.00" y1="322.32" x2="221.00" y2="324.07" stroke="rgb(0,0,0)" stroke-width="4.00"/>
	<line x1="221.00" y1="324.07" x2="220.00" y2="325.73" stroke="rgb(0,0,0)" stroke-width="4.00"/>
	<line x1="220.00" y1="325.73" x2="219.00" y2="327.31" stroke="rgb(0,0,0)" stroke-width="4.00"/>
	<line x1="219.00" y1="327.31" x2="218.00" y2="328.80" stroke="rgb(0,0,0)" stroke-width="4.00"/>
	<line x1="218.00" y1="328.80" x2="217.00" y2="330.21" stroke="rgb(0,0,0)" stroke-width="4.00"/>
	<line x1="217.00" y1="330.21" x2="216.00" y2="331.52" stroke="rgb(0,0,0)" stroke-width="4.00"/>
	<line x1="216.00" y1="331.52" x2="215.00" y2="332.75" stroke="rgb(0,0,0)" stroke-width="4.00"/>
	<line x1="215.00" y1="332.75" x2="214.00" y2="333.88" stroke="rgb(0,0,0)" stroke-width="4.00"/>
	<line x1="214.00" y1="333.88" x2="213.00" y2="334.92" stroke="rgb(0,0,0)" stroke-width="4.00"/>
	<line x1="213.00" y1="334.92" x2="212.00" y2="335.87" stroke="rgb(0,0,0)" stroke-width="4.00"/>
	<line x1="212.00" y1="335.87" x2="211.00" y2="336.72" stroke="rgb(0,0,0)" stroke-width="4.00"/>
	<line x1="211.00" y1="336.72" x2="210.00" y2="337.47" stroke="rgb(0,0,0)" stroke-width="4.00"/>
	<line x1="210.00" y1="337.47" x2="209.00" y2="338.13" stroke="rgb(0,0,0)" stroke-width="4.00"/>
	<line x1="209.00" y1="338.13" x2="208.00" y2="338.69" stroke="rgb(0,0,0)" stroke-width="4.00"/>
	<line x1="208.00" y1="338.69" x2="207.00" y2="339.15" stroke="rgb(0,0,0)" stroke-width="4.00"/>
	<line x1="207.00" y1="339.15" x2="206.00" y2="339.51" stroke="rgb(0,0,0)" stroke-width="4.00"/>
	<line x1="206.00" y1="339.51" x2="205.00" y2="339.77" stroke="rgb(0,0,0)" stroke-width="4.00"/>
	<line x1="205.00" y1="339.77" x2="204.00" y2="339.94" stroke="rgb(0,0,0)" stroke-width="4.00"/>
	<line x1="204.00" y1="339.94" x2="203.00" y2="340.00" stroke="rgb(0,0,0)" stroke-width="4.00"/>
	<line x1="203.00" y1="340.00" x2="202.00" y2="339.96" stroke="rgb(0,0,0)" stroke-width="4.00"/>
	<line x1="202.00" y1="339.96" x2="201.00" y2="339.82" stroke="rgb(0,0,0)" stroke-width="4.00"/>
	<line x1="201.00" y1="339.82" x2="200.00" y2="339.59" stroke="rgb(0,0,0)" stroke-width="4.00"/>
	<line x1="200.00" y1="339.59" x2="199.00" y2="339.25" stroke="rgb(0,0,0)" stroke-width="4.00"/>
	<line x1="199.00" y1="339.25" x2="198.00" y2="338.81" stroke="rgb(0,0,0)" stroke-width="4.00"/>
	<line x1="198.00" y1="338.81" x2="197.00" y2="338.28" stroke="rgb(0,0,0)" stroke-width="4.00"/>
	<line x1="197.00" y1="338.28" x2="196.00" y2="337.65" stroke="rgb(0,0,0)" stroke-width="4.00"/>
	<line x1="196.00" y1="337.65" x2="195.00" y2="336.92" stroke="rgb(0,0,0)" stroke-width="4.00"/>
	<line x1="195.00" y1="336.92" x2="194.00" y2="336.09" stroke="rgb(0,0,0)" stroke-width="4.00"/>
	<line x1="194.00" y1="336.09" x2="193.00" y2="335.17" stroke="rgb(0,0,0)" stroke-width="4.00"/>
	<line x1="193.00" y1="335.17" x2="192.00" y2="334.15" stroke="rgb(0,0,0)" stroke-width="4.00"/>
	<line x1="192.00" y1="334.15" x2="191.00" y2="333.04" stroke="rgb(0,0,0)" stroke-width="4.00"/>
	<line x1="191.00" y1="333.04" x2="190.00" y2="331.84" stroke="rgb(0,0,0)" stroke-width="4.00"/>
	<line x1="190.00" y1="331.84" x2="189.00" y2="330.54" stroke="rgb(0,0,0)" stroke-width="4.00"/>
	<line x1="189.00" y1="330.54" x2="188.00" y2="329.16" stroke="rgb(0,0,0)" stroke-width="4.00"/>
	<line x1="188.00" y1="329.16" x2="187.00" y2="327.69" stroke="rgb(0,0,0)" stroke-width="4.00"/>
	<line x1="187.00" y1="327.69" x2="186.00" y2="326.13" stroke="rgb(0,0,0)" stroke-width="4.00"/>
	<line x1="186.00" y1="326.13" x2="185.00" y2="324.49" stroke="rgb(0,0,0)" stroke-width="4.00"/>
	<line x1="185.00" y1="324.49" x2="184.00" y2="322.76" stroke="rgb(0,0,0)" stroke-width="4.00"/>
	<line x1="184.00" y1="322.76" x2="183.00" y2="320.96" stroke="rgb(0,0,0)" stroke-width="4.00"/>
	<line x1="183.00" y1="320.96" x2="182.00" y2="319.07" stroke="rgb(0,0,0)" stroke-width="4.00"/>
	<line x1="182.00" y1="319.07" x2="181.00" y2="317.11" stroke="rgb(0,0,0)" stroke-width="4.00"/>
	<line x1="181.00" y1="317.11" x2="180.00" y2="315.08" stroke="rgb(0,0,0)" stroke-width="4.00"/>
	<line x1="180.00" y1="315.08" x2="179.00" y2="312.97" stroke="rgb(0,0,0)" stroke-width="4.00"/>
	<line x1="179.00" y1="312.97" x2="178.00" y2="310.79" stroke="rgb(0,0,0)" stroke-width="4.00"/>
	<line x1="178.00" y1="310.79" x2="177.00" y2="308.55" stroke="rgb(0,0,0)" stroke-width="4.00"/>
	<line x1="177.00" y1="308.55" x2="176.00" y2="306.24" stroke="rgb(0,0,0)" stroke-width="4.00"/>
	<line x1="176.00" y1="306.24" x2="175.00" y2="303.86" stroke="rgb(0,0,0)" stroke-width="4.00"/>
	<line x1="175.00" y1="303.86" x2="174.00" y2="301.43" stroke="rgb(0,0,0)" stroke-width="4.00"/>
	<line x1="174.00" y1="301.43" x2="173.00" y2="298.94" stroke="rgb(0,0,0)" stroke-width="4.00"/>
	<line x1="173.00" y1="298.94" x2="172.00" y2="296.40" stroke="rgb(0,0,0)" stroke-width="4.00"/>
	<line x1="172.00" y1="296.40" x2="171.00" y2="293.80" stroke="rgb(0,0,0)" stroke-width="4.00"/>
	<line x1="171.00" y1="293.80" x2="170.00" y2="291.15" stroke="rgb(0,0,0)" stroke-width="4.00"/>
	<line x1="170.00" y1="291.15" x2="169.00" y2="288.46" stroke="rgb(0,0,0)" stroke-width="4.00"/>
	<line x1="169.00" y1="288.46" x2="168.00" y2="285.73" stroke="rgb(0,0,0)" stroke-width="4.00"/>
	<line x1="168.00" y1="285.73" x2="167.00" y2="282.96" stroke="rgb(0,0,0)" stroke-width="4.00"/>
	<line x1="167.00" y1="282.96" x2="166.00" y2="280.15" stroke="rgb(0,0,0)" stroke-width="4.00"/>
	<line x1="166.00" y1="280.15" x2="165.00" y2="277.31" stroke="rgb(0,0,0)" stroke-width="4.00"/>
	<line x1="165.00" y1="277.31" x2="164.00" y2="274.43" stroke="rgb(0,0,0)" stroke-width="4.00"/>
	<line x1="164.00" y1="274.43" x2="163.00" y2="271.53" stroke="rgb(0,0,0)" stroke-width="4.00"/>
	<line x1="163.00" y1="271.53" x2="162.00" y2="268.61" stroke="rgb(0,0,0)" stroke-width="4.00"/>
	<line x1="162.00" y1="268.61" x2="161.00" y2="265.66" stroke="rgb(0,0,0)" stroke-width="4.00"/>
	<line x1="161.00" y1="265.66" x2="160.00" y2="262.70" stroke="rgb(0,0,0)" stroke-width="4.00"/>
	<line x1="160.00" y1="262.70" x2="159.00" y2="259.72" stroke="rgb(0,0,0)" stroke-width="4.00"/>
	<line x1="159.00" y1="259.72" x2="158.00" y2="256.74" stroke="rgb(0,0,0)" stroke-width="4.00"/>
	<line x1="158.00" y1="256.74" x2="157.00" y2="253.74" stroke="rgb(0,0,0)" stroke-width="4.00"/>
	<line x1="157.00" y1="253.74" x2="156.00" y2="250.74" stroke="rgb(0,0,0)" stroke-width="4.00"/>
	<line x1="156.00" y1="250.74" x2="155.00" y2="247.74" stroke="rgb(0,0,0)" stroke-width="4.00"/>
	<line x1="155.00" y1="247.74" x2="154.00" y2="244.75" stroke="rgb(0,0,0)" stroke-width="4.00"/>
	<line x1="154.00" y1="244.75" x2="153.00" y2="241.75" stroke="rgb(0,0,0)" stroke-width="4.00"/>
	<line x1="153.00" y1="241.75" x2="152.00" y2="238.77" stroke="rgb(0,0,0)" stroke-width="4.00"/>
	<line x1="152.00" y1="238.77" x2="151.00" y2="235.80" stroke="rgb(0,0,0)" stroke-width="4.00"/>
	<line x1="151.00" y1="235.80" x2="150.00" y2="232.85" stroke="rgb(0,0,0)" stroke-width="4.00"/>
	<line x1="150.00" y1="232.85" x2="149.00" y2="229.91" stroke="rgb(0,0,0)" stroke-width="4.00"/>
	<line x1="149.00" y1="229.91" x2="148.00" y2="227.00" stroke="rgb(0,0,0)" stroke-width="4.00"/>
	<line x1="148.00" y1="227.00" x2="147.00" y2="224.11" stroke="rgb(0,0,0)" stroke-width="4.00"/>
	<line x1="147.00" y1="224.11" x2="146.00" y2="221.26" stroke="rgb(0,0,0)" stroke-width="4.00"/>
	<line x1="146.00" y1="221.26" x2="145.00" y2="218.43" stroke="rgb(0,0,0)" stroke-width="4.00"/>
	<line x1="145.00" y1="218.43" x2="144.00" y2="215.64" stroke="rgb(0,0,0)" stroke-width="4.00"/>
	<line x1="144.00" y1="215.64" x2="143.00" y2="212.89" stroke="rgb(0,0,0)" stroke-width="4.00"/>
	<line x1="143.00" y1="212.89" x2="142.00" y2="210.17" stroke="rgb(0,0,0)" stroke-width="4.00"/>
	<line x1="142.00" y1="210.17" x2="141.00" y2="207.51" stroke="rgb(0,0,0)" stroke-width="4.00"/>
	<line x1="141.00" y1="207.51" x2="140.00" y2="204.89" stroke="rgb(0,0,0)" stroke-width="4.00"/>
	<line x1="140.00" y1="204.89" x2="139.00" y2="202.31" stroke="rgb(0,0,0)" stroke-width="4.00"/>
	<line x1="139.00" y1="202.31" x2="138.00" y2="199.80" stroke="rgb(0,0,0)" stroke-width="4.00"/>
	<line x1="138.00" y1="199.80" x2="137.00" y2="197.34" stroke="rgb(0,0,0)" stroke-width="4.00"/>
	<line x1="137.00" y1="197.34" x2="136.00" y2="194.93" stroke="rgb(0,0,0)" stroke-width="4.00"/>
	<line x1="136.00" y1="194.93" x2="135.00" y2="192.59" stroke="rgb(0,0,0)" stroke-width="4.00"/>
	<line x1="135.00" y1="192.59" x2="134.00" y2="190.31" stroke="rgb(0,0,0)" stroke-width="4.00"/>
	<line x1="134.00" y1="190.31" x2="133.00" y2="188.10" stroke="rgb(0,0,0)" stroke-width="4.00"/>
	<line x1="133.00" y1="188.10" x2="132.00" y2="185.96" stroke="rgb(0,0,0)" stroke-width="4.00"/>
	<line x1="132.00" y1="185.96" x2="131.00" y2="183.89" stroke="rgb(0,0,0)" stroke-width="4.00"/>
	<line x1="131.00" y1="183.89" x2="130.00" y2="181.89" stroke="rgb(0,0,0)" stroke-width="4.00"/>
	<line x1="130.00" y1="181.89" x2="129.00" y2="179.97" stroke="rgb(0,0,0)" stroke-width="4.00"/>
	<line x1="129.00" y1="179.97" x2="128.00" y2="178.12" stroke="rgb(0,0,0)" stroke-width="4.00"/>
	<line x1="128.00" y1="178.12" x2="127.00" y2="176.36" stroke="rgb(0,0,0)" stroke-width="4.00"/>
	<line x1="127.00" y1="176.36" x2="126.00" y2="174.67" stroke="rgb(0,0,0)" stroke-width="4.00"/>
	<line x1="126.00" y1="174.67" x2="125.00" y2="173.07" stroke="rgb(0,0,0)" stroke-width="4.00"/>
	<line x1="125.00" y1="173.07" x2="124.00" y2="171.56" stroke="rgb(0,0,0)" stroke-width="4.00"/>
	<line x1="124.00" y1="171.56" x2="123.00" y2="170.13" stroke="rgb(0,0,0)" stroke-width="4.00"/>
	<line x1="123.00" y1="170.13" x2="122.00" y2="168.79" stroke="rgb(0,0,0)" stroke-width="4.00"/>
	<line x1="122.00" y1="168.79" x2="121.00" y2="167.55" stroke="rgb(0,0,0)" stroke-width="4.00"/>
	<line x1="121.00" y1="167.55" x2="120.00" y2="166.39" stroke="rgb(0,0,0)" stroke-width="4.00"/>
	<line x1="120.00" y1="166.39" x2="119.00" y2="165.33" stroke="rgb(0,0,0)" stroke-width="4.00"/>
	<line x1="119.00" y1="165.33" x2="118.00" y2="164.36" stroke="rgb(0,0,0)" stroke-width="4.00"/>
	<line x1="118.00" y1="164.36" x2="117.00" y2="163.48" stroke="rgb(0,0,0)" stroke-width="4.00"/>
	<line x1="117.00" y1="163.48" x2="116.00" y2="162.70" stroke="rgb(0,0,0)" stroke-width="4.00"/>
	<line x1="116.00" y1="162.70" x2="115.00" y2="162.02" stroke="rgb(0,0,0)" stroke-width="4.00"/>
	<line x1="115.00" y1="162.02" x2="114.00" y2="161.44" stroke="rgb(0,0,0)" stroke-width="4.00"/>
	<line x1="114.00" y1="161.44" x2="113.00" y2="160.95" stroke="rgb(0,0,0)" stroke-width="4.00"/>
	<line x1="113.00" y1="160.95" x2="112.00" y2="160.57" stroke="rgb(0,0,0)" stroke-width="4.00"/>
	<line x1="112.00" y1="160.57" x2="111.00" y2="160.28" stroke="rgb(0,0,0)" stroke-width="4.00"/>
	<line x1="111.00" y1="160.28" x2="110.00" y2="160.09" stroke="rgb(0,0,0)" stroke-width="4.00"/>
	<line x1="110.00" y1="160.09" x2="109.00" y2="160.01" stroke="rgb(0,0,0)" stroke-width="4.00"/>
	<line x1="109.00" y1="160.01" x2="108.00" y2="160.02" stroke="rgb(0,0,0)" stroke-width="4.00"/>
	<line x1="108.00" y1="160.02" x2="107.00" y2="160.13" stroke="rgb(0,0,0)" stroke-width="4.00"/>
	<line x1="107.00" y1="160.13" x2="106.00" y2="160.35" stroke="rgb(0,0,0)" stroke-width="4.00"/>
	<line x1="106.00" y1="160.35" x2="105.00" y2="160.66" stroke="rgb(0,0,0)" stroke-width="4.00"/>
	<line x1="105.00" y1="160.66" x2="104.00" y2="161.07" stroke="rgb(0,0,0)" stroke-width="4.00"/>
	<line x1="104.00" y1="161.07" x2="103.00" y2="161.58" stroke="rgb(0,0,0)" stroke-width="4.00"/>
	<line x1="103.00" y1="161.58" x2="102.00" y2="162.19" stroke="rgb(0,0,0)" stroke-width="4.00"/>
	<line x1="102.00" y1="162.19" x2="101.00" y2="162.89" stroke="rgb(0,0,0)" stroke-width="4.00"/>
	<line x1="101.00" y1="162.89" x2="100.00" y2="163.70" stroke="rgb(0,0,0)" stroke-width="4.00"/>
	<line x1="100.00" y1="163.70" x2="99.00" y2="164.60" stroke="rgb(0,0,0)" stroke-width="4.00"/>
	<line x1="99.00" y1="164.60" x2="98.00" y2="165.59" stroke="rgb(0,0,0)" stroke-width="4.00"/>
	<line x1="98.00" y1="165.59" x2="97.00" y2="166.68" stroke="rgb(0,0,0)" stroke-width="4.00"/>
	<line x1="97.00" y1="166.68" x2="96.00" y2="167.86" stroke="rgb(0,0,0)" stroke-width="4.00"/>
	<line x1="96.00" y1="167.86" x2="95.00" y2="169.13" stroke="rgb(0,0,0)" stroke-width="4.00"/>
	<line x1="95.00" y1="169.13" x2="94.00" y2="170.49" stroke="rgb(0,0,0)" stroke-width="4.00"/>
	<line x1="94.00" y1="170.49" x2="93.00" y2="171.94" stroke="rgb(0,0,0)" stroke-width="4.00"/>
	<line x1="93.00" y1="171.94" x2="92.00" y2="173.47" stroke="rgb(0,0,0)" stroke-width="4.00"/>
	<line x1="92.00" y1="173.47" x2="91.00" y2="175.10" stroke="rgb(0,0,0)" stroke-width="4.00"/>
	<line x1="91.00" y1="175.10" x2="90.00" y2="176.80" stroke="rgb(0,0,0)" stroke-width="4.00"/>
	<line x1="90.00" y1="176.80" x2="89.00" y2="178.59" stroke="rgb(0,0,0)" stroke-width="4.00"/>
	<line x1="89.00" y1="178.59" x2="88.00" y2="180.45" stroke="rgb(0,0,0)" stroke-width="4.00"/>
	<line x1="88.00" y1="180.45" x2="87.00" y2="182.39" stroke="rgb(0,0,0)" stroke-width="4.00"/>
	<line x1="87.00" y1="182.39" x2="86.00" y2="184.41" stroke="rgb(0,0,0)" stroke-width="4.00"/>
	<line x1="86.00" y1="184.41" x2="85.00" y2="186.50" stroke="rgb(0,0,0)" stroke-width="4.00"/>
	<line x1="85.00" y1="186.50" x2="84.00" y2="188.66" stroke="rgb(0,0,0)" stroke-width="4.00"/>
	<line x1="84.00" y1="188.66" x2="83.00" y2="190.89" stroke="rgb(0,0,0)" stroke-width="4.00"/>
	<line x1="83.00" y1="190.89" x2="82.00" y2="193.19" stroke="rgb(0,0,0)" stroke-width="4.00"/>
	<line x1="82.00" y1="193.19" x2="81.00" y2="195.54" stroke="rgb(0,0,0)" stroke-width="4.00"/>
	<line x1="81.00" y1="195.54" x2="80.00" y2="197.96" stroke="rgb(0,0,0)" stroke-width="4.00"/>
	<line x1="80.00" y1="197.96" x2="79.00" y2="200.44" stroke="rgb(0,0,0)" stroke-width="4.00"/>
	<line x1="79.00" y1="200.44" x2="78.00" y2="202.97" stroke="rgb(0,0,0)" stroke-width="4.00"/>
	<line x1="78.00" y1="202.97" x2="77.00" y2="205.55" stroke="rgb(0,0,0)" stroke-width="4.00"/>
	<line x1="77.00" y1="205.55" x2="76.00" y2="208.19" stroke="rgb(0,0,0)" stroke-width="4.00"/>
	<line x1="76.00" y1="208.19" x2="75.00" y2="210.87" stroke="rgb(0,0,0)" stroke-width="4.00"/>
	<line x1="75.00" y1="210.87" x2="74.00" y2="213.59" stroke="rgb(0,0,0)" stroke-width="4.00"/>
	<line x1="74.00" y1="213.59" x2="73.00" y2="216.35" stroke="rgb(0,0,0)" stroke-width="4.00"/>
	<line x1="73.00" y1="216.35" x2="72.00" y2="219.15" stroke="rgb(0,0,0)" stroke-width="4.00"/>
	<line x1="72.00" y1="219.15" x2="71.00" y2="221.99" stroke="rgb(0,0,0)" stroke-width="4.00"/>
	<line x1="71.00" y1="221.99" x2="70.00" y2="224.85" stroke="rgb(0,0,0)" stroke-width="4.00"/>
	<line x1="70.00" y1="224.85" x2="69.00" y2="227.75" stroke="rgb(0,0,0)" stroke-width="4.00"/>
	<line x1="69.00" y1="227.75" x2="68.00" y2="230.67" stroke="rgb(0,0,0)" stroke-width="4.00"/>
	<line x1="68.00" y1="230.67" x2="67.00" y2="233.61" stroke="rgb(0,0,0)" stroke-width="4.00"/>
	<line x1="67.00" y1="233.61" x2="66.00" y2="236.56" stroke="rgb(0,0,0)" stroke-width="4.00"/>
	<line x1="66.00" y1="236.56" x2="65.00" y2="239.54" stroke="rgb(0,0,0)" stroke-width="4.00"/>
	<line x1="65.00" y1="239.54" x2="64.00" y2="242.52" stroke="rgb(0,0,0)" stroke-width="4.00"/>
	<line x1="64.00" y1="242.52" x2="62.00" y2="248.51" stroke="rgb(0,0,0)" stroke-width="4.00"/>
	<line x1="63.00" y1="245.52" x2="62.00" y2="248.51" stroke="rgb(0,0,0)" stroke-width="4.00"/>
</svg>