<svg version="1.1" xmlns="https://www.w3.org/2000/svg" width="50.00" height="50.00">
	<line x1="25.00" y1="0.00" x2="25.10" y2="15.00" stroke="rgb(0,0,0)" stroke-width="0.50"/>
	<line x1="25.10" y1="15.00" x2="25.20" y2="20.00" stroke="rgb(0,0,0)" stroke-width="0.50"/>
	<line x1="25.20" y1="20.00" x2="25.30" y2="21.67" stroke="rgb(0,0,0)" stroke-width="0.50"/>
	<line x1="25.30" y1="21.67" x2="25.40" y2="22.50" stroke="rgb(0,0,0)" stroke-width="0.50"/>
	<line x1="25.40" y1="22.50" x2="25.50" y2="23.00" stroke="rgb(0,0,0)" stroke-width="0.50"/>
	<line x1="25.50" y1="23.00" x2="25.60" y2="23.33" stroke="rgb(0,0,0)" stroke-width="0.50"/>
	<line x1="25.60" y1="23.33" x2="25.70" y2="23.57" stroke="rgb(0,0,0)" stroke-width="0.50"/>
	<line x1="25.70" y1="23.57" x2="25.80" y2="23.75" stroke="rgb(0,0,0)" stroke-width="0.50"/>
	<line x1="25.80" y1="23.75" x2="25.90" y2="23.89" stroke="rgb(0,0,0)" stroke-width="0.50"/>
	<line x1="25.90" y1="23.89" x2="26.00" y2="24.00" stroke="rgb(0,0,0)" stroke-width="0.50"/>
	<line x1="26.00" y1="24.00" x2="26.10" y2="24.09" stroke="rgb(0,0,0)" stroke-width="0.50"/>
	<line x1="26.10" y1="24.09" x2="26.20" y2="24.17" stroke="rgb(0,0,0)" stroke-width="0.50"/>
	<line x1="26.20" y1="24.17" x2="26.30" y2="24.23" stroke="rgb(0,0,0)" stroke-width="0.50"/>
	<line x1="26.30" y1="24.23" x2="26.40" y2="24.29" stroke="rgb(0,0,0)" stroke-width="0.50"/>
	<line x1="26.40" y1="24.29" x2="26.50" y2="24.33" stroke="rgb(0,0,0)" stroke-width="0.50"/>
	<line x1="26.50" y1="24.33" x2="26.60" y2="24.38" stroke="rgb(0,0,0)" stroke-width="0.50"/>
	<line x1="26.60" y1="24.38" x2="26.70" y2="24.41" stroke="rgb(0,0,0)" stroke-width="0.50"/>
	<line x1="26.70" y1="24.41" x2="26.80" y2="24.44" stroke="rgb(0,0,0)" stroke-width="0.50"/>
	<line x1="26.80" y1="24.44" x2="26.90" y2="24.47" stroke="rgb(0,0,0)" stroke-width="0.50"/>
	<line x1="26.90" y1="24.47" x2="27.00" y2="24.50" stroke="rgb(0,0,0)" stroke-width="0.50"/>
	<line x1="27.00" y1="24.50" x2="27.10" y2="24.52" stroke="rgb(0,0,0)" stroke-width="0.50"/>
	<line x1="27.10" y1="24.52" x2="27.20" y2="24.55" stroke="rgb(0,0,0)" stroke-width="0.50"/>
	<line x1="27.20" y1="24.55" x2="27.30" y2="24.57" stroke="rgb(0,0,0)" stroke-width="0.50"/>
	<line x1="27.30" y1="24.57" x2="27.40" y2="24.58" stroke="rgb(0,0,0)" stroke-width="0.50"/>
	<line x1="27.40" y1="24.58" x2="27.50" y2="24.60" stroke="rgb(0,0,0)" stroke-width="0.50"/>
	<line x1="27.50" y1="24.60" x2="27.60" y2="24.62" stroke="rgb(0,0,0)" stroke-width="0.50"/>
	<line x1="27.60" y1="24.62" x2="27.70" y2="24.63" stroke="rgb(0,0,0)" stroke-width="0.50"/>
	<line x1="27.70" y1="24.63" x2="27.80" y2="24.64" stroke="rgb(0,0,0)" stroke-width="0.50"/>
	<line x1="27.80" y1="24.64" x2="27.90" y2="24.66" stroke="rgb(0,0,0)" stroke-width="0.50"/>
	<line x1="27.90" y1="24.66" x2="28.00" y2="24.67" stroke="rgb(0,0,0)" stroke-width="0.50"/>
	<line x1="28.00" y1="24.67" x2="28.10" y2="24.68" stroke="rgb(0,0,0)" stroke-width="0.50"/>
	<line x1="28.10" y1="24.68" x2="28.20" y2="24.69" stroke="rgb(0,0,0)" stroke-width="0.50"/>
	<line x1="28.20" y1="24.69" x2="28.30" y2="24.70" stroke="rgb(0,0,0)" stroke-width="0.50"/>
	<line x1="28.30" y1="24.70" x2="28.40" y2="24.71" stroke="rgb(0,0,0)" stroke-width="0.50"/>
	<line x1="28.40" y1="24.71" x2="28.50" y2="24.71" stroke="rgb(0,0,0)" stroke-width="0.50"/>
	<line x1="28.50" y1="24.71" x2="28.60" y2="24.72" stroke="rgb(0,0,0)" stroke-width="0.50"/>
	<line x1="28.60" y1="24.72" x2="28.70" y2="24.73" stroke="rgb(0,0,0)" stroke-width="0.50"/>
	<line x1="28.70" y1="24.73" x2="28.80" y2="24.74" stroke="rgb(0,0,0)" stroke-width="0.50"/>
	<line x1="28.80" y1="24.74" x2="28.90" y2="24.74" stroke="rgb(0,0,0)" stroke-width="0.50"/>
	<line x1="28.90" y1="24.74" x2="29.00" y2="24.75" stroke="rgb(0,0,0)" stroke-width="0.50"/>
	<line x1="29.00" y1="24.75" x2="29.10" y2="24.76" stroke="rgb(0,0,0)" stroke-width="0.50"/>
	<line x1="29.10" y1="24.76" x2="29.20" y2="24.76" stroke="rgb(0,0,0)" stroke-width="0.50"/>
	<line x1="29.20" y1="24.76" x2="29.30" y2="24.77" stroke="rgb(0,0,0)" stroke-width="0.50"/>
	<line x1="29.30" y1="24.77" x2="29.40" y2="24.77" stroke="rgb(0,0,0)" stroke-width="0.50"/>
	<line x1="29.40" y1="24.77" x2="29.50" y2="24.78" stroke="rgb(0,0,0)" stroke-width="0.50"/>
	<line x1="29.50" y1="24.78" x2="29.60" y2="24.78" stroke="rgb(0,0,0)" stroke-width="0.50"/>
	<line x1="29.60" y1="24.78" x2="29.70" y2="24.79" stroke="rgb(0,0,0)" stroke-width="0.50"/>
	<line x1="29.70" y1="24.79" x2="29.80" y2="24.79" stroke="rgb(0,0,0)" stroke-width="0.50"/>
	<line x1="29.80" y1="24.79" x2="29.90" y2="24.80" stroke="rgb(0,0,0)" stroke-width="0.50"/>
	<line x1="29.90" y1="24.80" x2="30.00" y2="24.80" stroke="rgb(0,0,0)" stroke-width="0.50"/>
	<line x1="30.00" y1="24.80" x2="30.10" y2="24.80" stroke="rgb(0,0,0)" stroke-width="0.50"/>
	<line x1="30.10" y1="24.80" x2="30.20" y2="24.81" stroke="rgb(0,0,0)" stroke-width="0.50"/>
	<line x1="30.20" y1="24.81" x2="30.30" y2="24.81" stroke="rgb(0,0,0)" stroke-width="0.50"/>
	<line x1="30.30" y1="24.81" x2="30.40" y2="24.81" stroke="rgb(0,0,0)" stroke-width="0.50"/>
	<line x1="30.40" y1="24.81" x2="30.50" y2="24.82" stroke="rgb(0,0,0)" stroke-width="0.50"/>
	<line x1="30.50" y1="24.82" x2="30.60" y2="24.82" stroke="rgb(0,0,0)" stroke-width="0.50"/>
	<line x1="30.60" y1="24.82" x2="30.70" y2="24.82" stroke="rgb(0,0,0)" stroke-width="0.50"/>
	<line x1="30.70" y1="24.82" x2="30.80" y2="24.83" stroke="rgb(0,0,0)" stroke-width="0.50"/>
	<line x1="30.80" y1="24.83" x2="30.90" y2="24.83" stroke="rgb(0,0,0)" stroke-width="0.50"/>
	<line x1="30.90" y1="24.83" x2="31.00" y2="24.83" stroke="rgb(0,0,0)" stroke-width="0.50"/>
	<line x1="31.00" y1="24.83" x2="31.10" y2="24.84" stroke="rgb(0,0,0)" stroke-width="0.50"/>
	<line x1="31.10" y1="24.84" x2="31.20" y2="24.84" stroke="rgb(0,0,0)" stroke-width="0.50"/>
	<line x1="31.20" y1="24.84" x2="31.30" y2="24.84" stroke="rgb(0,0,0)" stroke-width="0.50"/>
	<line x1="31.30" y1="24.84" x2="31.40" y2="24.84" stroke="rgb(0,0,0)" stroke-width="0.50"/>
	<line x1="31.40" y1="24.84" x2="31.50" y2="24.85" stroke="rgb(0,0,0)" stroke-width="0.50"/>
	<line x1="31.50" y1="24.85" x2="31.60" y2="24.85" stroke="rgb(0,0,0)" stroke-width="0.50"/>
	<line x1="31.60" y1="24.85" x2="31.70" y2="24.85" stroke="rgb(0,0,0)" stroke-width="0.50"/>
	<line x1="31.70" y1="24.85" x2="31.80" y2="24.85" stroke="rgb(0,0,0)" stroke-width="0.50"/>
	<line x1="31.80" y1="24.85" x2="31.90" y2="24.86" stroke="rgb(0,0,0)" stroke-width="0.50"/>
	<line x1="31.90" y1="24.86" x2="32.00" y2="24.86" stroke="rgb(0,0,0)" stroke-width="0.50"/>
	<line x1="32.00" y1="24.86" x2="32.10" y2="24.86" stroke="rgb(0,0,0)" stroke-width="0.50"/>
	<line x1="32.10" y1="24.86" x2="32.20" y2="24.86" stroke="rgb(0,0,0)" stroke-width="0.50"/>
	<line x1="32.20" y1="24.86" x2="32.30" y2="24.86" stroke="rgb(0,0,0)" stroke-width="0.50"/>
	<line x1="32.30" y1="24.86" x2="32.40" y2="24.86" stroke="rgb(0,0,0)" stroke-width="0.50"/>
	<line x1="32.40" y1="24.86" x2="32.50" y2="24.87" stroke="rgb(0,0,0)" stroke-width="0.50"/>
	<line x1="32.50" y1="24.87" x2="32.60" y2="24.87" stroke="rgb(0,0,0)" stroke-width="0.50"/>
	<line x1="32.60" y1="24.87" x2="32.70" y2="24.87" stroke="rgb(0,0,0)" stroke-width="0.50"/>
	<line x1="32.70" y1="24.87" x2="32.80" y2="24.87" stroke="rgb(0,0,0)" stroke-width="0.50"/>
	<line x1="32.80" y1="24.87" x2="32.90" y2="24.87" stroke="rgb(0,0,0)" stroke-width="0.50"/>
	<line x1="32.90" y1="24.87" x2="33.00" y2="24.88" stroke="rgb(0,0,0)" stroke-width="0.50"/>
	<line x1="33.00" y1="24.88" x2="33.10" y2="24.88" stroke="rgb(0,0,0)" stroke-width="0.50"/>
	<line x1="33.10" y1="24.88" x2="33.20" y2="24.88" stroke="rgb(0,0,0)" stroke-width="0.50"/>
	<line x1="33.20" y1="24.88" x2="33.30" y2="24.88" stroke="rgb(0,0,0)" stroke-width="0.50"/>
	<line x1="33.30" y1="24.88" x2="33.40" y2="24.88" stroke="rgb(0,0,0)" stroke-width="0.50"/>
	<line x1="33.40" y1="24.88" x2="33.50" y2="24.88" stroke="rgb(0,0,0)" stroke-width="0.50"/>
	<line x1="33.50" y1="24.88" x2="33.60" y2="24.88" stroke="rgb(0,0,0)" stroke-width="0.50"/>
	<line x1="33.60" y1="24.88" x2="33.70" y2="24.89" stroke="rgb(0,0,0)" stroke-width="0.50"/>
	<line x1="33.70" y1="24.89" x2="33.80" y2="24.89" stroke="rgb(0,0,0)" stroke-width="0.50"/>
	<line x1="33.80" y1="24.89" x2="33.90" y2="24.89" stroke="rgb(0,0,0)" stroke-width="0.50"/>
	<line x1="33.90" y1="24.89" x2="34.00" y2="24.89" stroke="rgb(0,0,0)" stroke-width="0.50"/>
	<line x1="34.00" y1="24.89" x2="34.10" y2="24.89" stroke="rgb(0,0,0)" stroke-width="0.50"/>
	<line x1="34.10" y1="24.89" x2="34.20" y2="24.89" stroke="rgb(0,0,0)" stroke-width="0.50"/>
	<line x1="34.20" y1="24.89" x2="34.30" y2="24.89" stroke="rgb(0,0,0)" stroke-width="0.50"/>
	<line x1="34.30" y1="24.89" x2="34.40" y2="24.89" stroke="rgb(0,0,0)" stroke-width="0.50"/>
	<line x1="34.40" y1="24.89" x2="34.50" y2="24.89" stroke="rgb(0,0,0)" stroke-width="0.50"/>
	<line x1="34.50" y1="24.89" x2="34.60" y2="24.90" stroke="rgb(0,0,0)" stroke-width="0.50"/>
	<line x1="34.60" y1="24.90" x2="34.70" y2="24.90" stroke="rgb(0,0,0)" stroke-width="0.50"/>
	<line x1="34.70" y1="24.90" x2="34.80" y2="24.90" stroke="rgb(0,0,0)" stroke-width="0.50"/>
	<line x1="34.80" y1="24.90" x2="34.90" y2="24.90" stroke="rgb(0,0,0)" stroke-width="0.50"/>
	<line x1="34.90" y1="24.90" x2="35.00" y2="24.90" stroke="rgb(0,0,0)" stroke-width="0.50"/>
	<line x1="35.00" y1="24.90" x2="35.10" y2="24.90" stroke="rgb(0,0,0)" stroke-width="0.50"/>
	<line x1="35.10" y1="24.90" x2="35.20" y2="24.90" stroke="rgb(0,0,0)" stroke-width="0.50"/>
	<line x1="35.20" y1="24.90" x2="35.30" y2="24.90" stroke="rgb(0,0,0)" stroke-width="0.50"/>
	<line x1="35.30" y1="24.90" x2="35.40" y2="24.90" stroke="rgb(0,0,0)" stroke-width="0.50"/>
	<line x1="35.40" y1="24.90" x2="35.50" y2="24.90" stroke="rgb(0,0,0)" stroke-width="0.50"/>
	<line x1="35.50" y1="24.90" x2="35.60" y2="24.91" stroke="rgb(0,0,0)" stroke-width="0.50"/>
	<line x1="35.60" y1="24.91" x2="35.70" y2="24.91" stroke="rgb(0,0,0)" stroke-width="0.50"/>
	<line x1="35.70" y1="24.91" x2="35.80" y2="24.91" stroke="rgb(0,0,0)" stroke-width="0.50"/>
	<line x1="35.80" y1="24.91" x2="35.90" y2="24.91" stroke="rgb(0,0,0)" stroke-width="0.50"/>
	<line x1="35.90" y1="24.91" x2="36.00" y2="24.91" stroke="rgb(0,0,0)" stroke-width="0.50"/>
	<line x1="36.00" y1="24.91" x2="36.10" y2="24.91" stroke="rgb(0,0,0)" stroke-width="0.50"/>
	<line x1="36.10" y1="24.91" x2="36.20" y2="24.91" stroke="rgb(0,0,0)" stroke-width="0.50"/>
	<line x1="36.20" y1="24.91" x2="36.30" y2="24.91" stroke="rgb(0,0,0)" stroke-width="0.50"/>
	<line x1="36.30" y1="24.91" x2="36.40" y2="24.91" stroke="rgb(0,0,0)" stroke-width="0.50"/>
	<line x1="36.40" y1="24.91" x2="36.50" y2="24.91" stroke="rgb(0,0,0)" stroke-width="0.50"/>
	<line x1="36.50" y1="24.91" x2="36.60" y2="24.91" stroke="rgb(0,0,0)" stroke-width="0.50"/>
	<line x1="36.60" y1="24.91" x2="36.70" y2="24.91" stroke="rgb(0,0,0)" stroke-width="0.50"/>
	<line x1="36.70" y1="24.91" x2="36.80" y2="24.92" stroke="rgb(0,0,0)" stroke-width="0.50"/>
	<line x1="36.80" y1="24.92" x2="36.90" y2="24.92" stroke="rgb(0,0,0)" stroke-width="0.50"/>
	<line x1="36.90" y1="24.92" x2="37.00" y2="24.92" stroke="rgb(0,0,0)" stroke-width="0.50"/>
	<line x1="37.00" y1="24.92" x2="37.10" y2="24.92" stroke="rgb(0,0,0)" stroke-width="0.50"/>
	<line x1="37.10" y1="24.92" x2="37.20" y2="24.92" stroke="rgb(0,0,0)" stroke-width="0.50"/>
	<line x1="37.20" y1="24.92" x2="37.30" y2="24.92" stroke="rgb(0,0,0)" stroke-width="0.50"/>
	<line x1="37.30" y1="24.92" x2="37.40" y2="24.92" stroke="rgb(0,0,0)" stroke-width="0.50"/>
	<line x1="37.40" y1="24.92" x2="37.50" y2="24.92" stroke="rgb(0,0,0)" stroke-width="0.50"/>
	<line x1="37.50" y1="24.92" x2="37.60" y2="24.92" stroke="rgb(0,0,0)" stroke-width="0.50"/>
	<line x1="37.60" y1="24.92" x2="37.70" y2="24.92" stroke="rgb(0,0,0)" stroke-width="0.50"/>
	<line x1="37.70" y1="24.92" x2="37.80" y2="24.92" stroke="rgb(0,0,0)" stroke-width="0.50"/>
	<line x1="37.80" y1="24.92" x2="37.90" y2="24.92" stroke="rgb(0,0,0)" stroke-width="0.50"/>
	<line x1="37.90" y1="24.92" x2="38.00" y2="24.92" stroke="rgb(0,0,0)" stroke-width="0.50"/>
	<line x1="38.00" y1="24.92" x2="38.10" y2="24.92" stroke="rgb(0,0,0)" stroke-width="0.50"/>
	<line x1="38.10" y1="24.92" x2="38.20" y2="24.92" stroke="rgb(0,0,0)" stroke-width="0.50"/>
	<line x1="38.20" y1="24.92" x2="38.30" y2="24.92" stroke="rgb(0,0,0)" stroke-width="0.50"/>
	<line x1="38.30" y1="24.92" x2="38.40" y2="24.93" stroke="rgb(0,0,0)" stroke-width="0.50"/>
	<line x1="38.40" y1="24.93" x2="38.50" y2="24.93" stroke="rgb(0,0,0)" stroke-width="0.50"/>
	<line x1="38.50" y1="24.93" x2="38.60" y2="24.93" stroke="rgb(0,0,0)" stroke-width="0.50"/>
	<line x1="38.60" y1="24.93" x2="38.70" y2="24.93" stroke="rgb(0,0,0)" stroke-width="0.50"/>
	<line x1="38.70" y1="24.93" x2="38.80" y2="24.93" stroke="rgb(0,0,0)" stroke-width="0.50"/>
	<line x1="38.80" y1="24.93" x2="38.90" y2="24.93" stroke="rgb(0,0,0)" stroke-width="0.50"/>
	<line x1="38.90" y1="24.93" x2="39.00" y2="24.93" stroke="rgb(0,0,0)" stroke-width="0.50"/>
	<line x1="39.00" y1="24.93" x2="39.10" y2="24.93" stroke="rgb(0,0,0)" stroke-width="0.50"/>
	<line x1="39.10" y1="24.93" x2="39.20" y2="24.93" stroke="rgb(0,0,0)" stroke-width="0.50"/>
	<line x1="39.20" y1="24.93" x2="39.30" y2="24.93" stroke="rgb(0,0,0)" stroke-width="0.50"/>
	<line x1="39.30" y1="24.93" x2="39.40" y2="24.93" stroke="rgb(0,0,0)" stroke-width="0.50"/>
	<line x1="39.40" y1="24.93" x2="39.50" y2="24.93" stroke="rgb(0,0,0)" stroke-width="0.50"/>
	<line x1="39.50" y1="24.93" x2="39.60" y2="24.93" stroke="rgb(0,0,0)" stroke-width="0.50"/>
	<line x1="39.60" y1="24.93" x2="39.70" y2="24.93" stroke="rgb(0,0,0)" stroke-width="0.50"/>
	<line x1="39.70" y1="24.93" x2="39.80" y2="24.93" stroke="rgb(0,0,0)" stroke-width="0.50"/>
	<line x1="39.80" y1="24.93" x2="39.90" y2="24.93" stroke="rgb(0,0,0)" stroke-width="0.50"/>
	<line x1="39.90" y1="24.93" x2="40.00" y2="24.93" stroke="rgb(0,0,0)" stroke-width="0.50"/>
	<line x1="40.00" y1="24.93" x2="40.10" y2="24.93" stroke="rgb(0,0,0)" stroke-width="0.50"/>
	<line x1="40.10" y1="24.93" x2="40.20" y2="24.93" stroke="rgb(0,0,0)" stroke-width="0.50"/>
	<line x1="40.20" y1="24.93" x2="40.30" y2="24.93" stroke="rgb(0,0,0)" stroke-width="0.50"/>
	<line x1="40.30" y1="24.93" x2="40.40" y2="24.94" stroke="rgb(0,0,0)" stroke-width="0.50"/>
	<line x1="40.40" y1="24.94" x2="40.50" y2="24.94" stroke="rgb(0,0,0)" stroke-width="0.50"/>
	<line x1="40.50" y1="24.94" x2="40.60" y2="24.94" stroke="rgb(0,0,0)" stroke-width="0.50"/>
	<line x1="40.60" y1="24.94" x2="40.70" y2="24.94" stroke="rgb(0,0,0)" stroke-width="0.50"/>
	<line x1="40.70" y1="24.94" x2="40.80" y2="24.94" stroke="rgb(0,0,0)" stroke-width="0.50"/>
	<line x1="40.80" y1="24.94" x2="40.90" y2="24.94" stroke="rgb(0,0,0)" stroke-width="0.50"/>
	<line x1="40.90" y1="24.94" x2="41.00" y2="24.94" stroke="rgb(0,0,0)" stroke-width="0.50"/>
	<line x1="41.00" y1="24.94" x2="41.10" y2="24.94" stroke="rgb(0,0,0)" stroke-width="0.50"/>
	<line x1="41.10" y1="24.94" x2="41.20" y2="24.94" stroke="rgb(0,0,0)" stroke-width="0.50"/>
	<line x1="41.20" y1="24.94" x2="41.30" y2="24.94" stroke="rgb(0,0,0)" stroke-width="0.50"/>
	<line x1="41.30" y1="24.94" x2="41.40" y2="24.94" stroke="rgb(0,0,0)" stroke-width="0.50"/>
	<line x1="41.40" y1="24.94" x2="41.50" y2="24.94" stroke="rgb(0,0,0)" stroke-width="0.50"/>
	<line x1="41.50" y1="24.94" x2="41.60" y2="24.94" stroke="rgb(0,0,0)" stroke-width="0.50"/>
	<line x1="41.60" y1="24.94" x2="41.70" y2="24.94" stroke="rgb(0,0,0)" stroke-width="0.50"/>
	<line x1="41.70" y1="24.94" x2="41.80" y2="24.94" stroke="rgb(0,0,0)" stroke-width="0.50"/>
	<line x1="41.80" y1="24.94" x2="41.90" y2="24.94" stroke="rgb(0,0,0)" stroke-width="0.50"/>
	<line x1="41.90" y1="24.94" x2="42.00" y2="24.94" stroke="rgb(0,0,0)" stroke-width="0.50"/>
	<line x1="42.00" y1="24.94" x2="42.10" y2="24.94" stroke="rgb(0,0,0)" stroke-width="0.50"/>
	<line x1="42.10" y1="24.94" x2="42.20" y2="24.94" stroke="rgb(0,0,0)" stroke-width="0.50"/>
	<line x1="42.20" y1="24.94" x2="42.30" y2="24.94" stroke="rgb(0,0,0)" stroke-width="0.50"/>
	<line x1="42.30" y1="24.94" x2="42.40" y2="24.94" stroke="rgb(0,0,0)" stroke-width="0.50"/>
	<line x1="42.40" y1="24.94" x2="42.50" y2="24.94" stroke="rgb(0,0,0)" stroke-width="0.50"/>
	<line x1="42.50" y1="24.94" x2="42.60" y2="24.94" stroke="rgb(0,0,0)" stroke-width="0.50"/>
	<line x1="42.60" y1="24.94" x2="42.70" y2="24.94" stroke="rgb(0,0,0)" stroke-width="0.50"/>
	<line x1="42.70" y1="24.94" x2="42.80" y2="24.94" stroke="rgb(0,0,0)" stroke-width="0.50"/>
	<line x1="42.80" y1="24.94" x2="42.90" y2="24.94" stroke="rgb(0,0,0)" stroke-width="0.50"/>
	<line x1="42.90" y1="24.94" x2="43.00" y2="24.94" stroke="rgb(0,0,0)" stroke-width="0.50"/>
	<line x1="43.00" y1="24.94" x2="43.10" y2="24.94" stroke="rgb(0,0,0)" stroke-width="0.50"/>
	<line x1="43.10" y1="24.94" x2="43.20" y2="24.95" stroke="rgb(0,0,0)" stroke-width="0.50"/>
	<line x1="43.20" y1="24.95" x2="43.30" y2="24.95" stroke="rgb(0,0,0)" stroke-width="0.50"/>
	<line x1="43.30" y1="24.95" x2="43.40" y2="24.95" stroke="rgb(0,0,0)" stroke-width="0.50"/>
	<line x1="43.40" y1="24.95" x2="43.50" y2="24.95" stroke="rgb(0,0,0)" stroke-width="0.50"/>
	<line x1="43.50" y1="24.95" x2="43.60" y2="24.95" stroke="rgb(0,0,0)" stroke-width="0.50"/>
	<line x1="43.60" y1="24.95" x2="43.70" y2="24.95" stroke="rgb(0,0,0)" stroke-width="0.50"/>
	<line x1="43.70" y1="24.95" x2="43.80" y2="24.95" stroke="rgb(0,0,0)" stroke-width="0.50"/>
	<line x1="43.80" y1="24.95" x2="43.90" y2="24.95" stroke="rgb(0,0,0)" stroke-width="0.50"/>
	<line x1="43.90" y1="24.95" x2="44.00" y2="24.95" stroke="rgb(0,0,0)" stroke-width="0.50"/>
	<line x1="44.00" y1="24.95" x2="44.10" y2="24.95" stroke="rgb(0,0,0)" stroke-width="0.50"/>
	<line x1="44.10" y1="24.95" x2="44.20" y2="24.95" stroke="rgb(0,0,0)" stroke-width="0.50"/>
	<line x1="44.20" y1="24.95" x2="44.30" y2="24.95" stroke="rgb(0,0,0)" stroke-width="0.50"/>
	<line x1="44.30" y1="24.95" x2="44.40" y2="24.95" stroke="rgb(0,0,0)" stroke-width="0.50"/>
	<line x1="44.40" y1="24.95" x2="44.50" y2="24.95" stroke="rgb(0,0,0)" stroke-width="0.50"/>
	<line x1="44.50" y1="24.95" x2="44.60" y2="24.95" stroke="rgb(0,0,0)" stroke-width="0.50"/>
	<line x1="44.60" y1="24.95" x2="44.70" y2="24.95" stroke="rgb(0,0,0)" stroke-width="0.50"/>
	<line x1="44.70" y1="24.95" x2="44.80" y2="24.95" stroke="rgb(0,0,0)" stroke-width="0.50"/>
	<line x1="44.80" y1="24.95" x2="44.90" y2="24.95" stroke="rgb(0,0,0)" stroke-width="0.50"/>
	<line x1="44.90" y1="24.95" x2="45.00" y2="24.95" stroke="rgb(0,0,0)" stroke-width="0.50"/>
	<line x1="45.00" y1="24.95" x2="45.10" y2="24.95" stroke="rgb(0,0,0)" stroke-width="0.50"/>
	<line x1="45.10" y1="24.95" x2="45.20" y2="24.95" stroke="rgb(0,0,0)" stroke-width="0.50"/>
	<line x1="45.20" y1="24.95" x2="45.30" y2="24.95" stroke="rgb(0,0,0)" stroke-width="0.50"/>
	<line x1="45.30" y1="24.95" x2="45.40" y2="24.95" stroke="rgb(0,0,0)" stroke-width="0.50"/>
	<line x1="45.40" y1="24.95" x2="45.50" y2="24.95" stroke="rgb(0,0,0)" stroke-width="0.50"/>
	<line x1="45.50" y1="24.95" x2="45.60" y2="24.95" stroke="rgb(0,0,0)" stroke-width="0.50"/>
	<line x1="45.60" y1="24.95" x2="45.70" y2="24.95" stroke="rgb(0,0,0)" stroke-width="0.50"/>
	<line x1="45.70" y1="24.95" x2="45.80" y2="24.95" stroke="rgb(0,0,0)" stroke-width="0.50"/>
	<line x1="45.80" y1="24.95" x2="45.90" y2="24.95" stroke="rgb(0,0,0)" stroke-width="0.50"/>
	<line x1="45.90" y1="24.95" x2="46.00" y2="24.95" stroke="rgb(0,0,0)" stroke-width="0.50"/>
	<line x1="46.00" y1="24.95" x2="46.10" y2="24.95" stroke="rgb(0,0,0)" stroke-width="0.50"/>
	<line x1="46.10" y1="24.95" x2="46.20" y2="24.95" stroke="rgb(0,0,0)" stroke-width="0.50"/>
	<line x1="46.20" y1="24.95" x2="46.30" y2="24.95" stroke="rgb(0,0,0)" stroke-width="0.50"/>
	<line x1="46.30" y1="24.95" x2="46.40" y2="24.95" stroke="rgb(0,0,0)" stroke-width="0.50"/>
	<line x1="46.40" y1="24.95" x2="46.50" y2="24.95" stroke="rgb(0,0,0)" stroke-width="0.50"/>
	<line x1="46.50" y1="24.95" x2="46.60" y2="24.95" stroke="rgb(0,0,0)" stroke-width="0.50"/>
	<line x1="46.60" y1="24.95" x2="46.70" y2="24.95" stroke="rgb(0,0,0)" stroke-width="0.50"/>
	<line x1="46.70" y1="24.95" x2="46.80" y2="24.95" stroke="rgb(0,0,0)" stroke-width="0.50"/>
	<line x1="46.80" y1="24.95" x2="46.90" y2="24.95" stroke="rgb(0,0,0)" stroke-width="0.50"/>
	<line x1="46.90" y1="24.95" x2="47.00" y2="24.95" stroke="rgb(0,0,0)" stroke-width="0.50"/>
	<line x1="47.00" y1="24.95" x2="47.10" y2="24.95" stroke="rgb(0,0,0)" stroke-width="0.50"/>
	<line x1="47.10" y1="24.95" x2="47.20" y2="24.95" stroke="rgb(0,0,0)" stroke-width="0.50"/>
	<line x1="47.20" y1="24.95" x2="47.30" y2="24.96" stroke="rgb(0,0,0)" stroke-width="0.50"/>
	<line x1="47.30" y1="24.96" x2="47.40" y2="24.96" stroke="rgb(0,0,0)" stroke-width="0.50"/>
	<line x1="47.40" y1="24.96" x2="47.50" y2="24.96" stroke="rgb(0,0,0)" stroke-width="0.50"/>
	<line x1="47.50" y1="24.96" x2="47.60" y2="24.96" stroke="rgb(0,0,0)" stroke-width="0.50"/>
	<line x1="47.60" y1="24.96" x2="47.70" y2="24.96" stroke="rgb(0,0,0)" stroke-width="0.50"/>
	<line x1="47.70" y1="24.96" x2="47.80" y2="24.96" stroke="rgb(0,0,0)" stroke-width="0.50"/>
	<line x1="47.80" y1="24.96" x2="47.90" y2="24.96" stroke="rgb(0,0,0)" stroke-width="0.50"/>
	<line x1="47.90" y1="24.96" x2="48.00" y2="24.96" stroke="rgb(0,0,0)" stroke-width="0.50"/>
	<line x1="48.00" y1="24.96" x2="48.10" y2="24.96" stroke="rgb(0,0,0)" stroke-width="0.50"/>
	<line x1="48.10" y1="24.96" x2="48.20" y2="24.96" stroke="rgb(0,0,0)" stroke-width="0.50"/>
	<line x1="48.20" y1="24.96" x2="48.30" y2="24.96" stroke="rgb(0,0,0)" stroke-width="0.50"/>
	<line x1="48.30" y1="24.96" x2="48.40" y2="24.96" stroke="rgb(0,0,0)" stroke-width="0.50"/>
	<line x1="48.40" y1="24.96" x2="48.50" y2="24.96" stroke="rgb(0,0,0)" stroke-width="0.50"/>
	<line x1="48.50" y1="24.96" x2="48.60" y2="24.96" stroke="rgb(0,0,0)" stroke-width="0.50"/>
	<line x1="48.60" y1="24.96" x2="48.70" y2="24.96" stroke="rgb(0,0,0)" stroke-width="0.50"/>
	<line x1="48.70" y1="24.96" x2="48.80" y2="24.96" stroke="rgb(0,0,0)" stroke-width="0.50"/>
	<line x1="48.80" y1="24.96" x2="48.90" y2="24.96" stroke="rgb(0,0,0)" stroke-width="0.50"/>
	<line x1="48.90" y1="24.96" x2="49.00" y2="24.96" stroke="rgb(0,0,0)" stroke-width="0.50"/>
	<line x1="49.00" y1="24.96" x2="49.10" y2="24.96" stroke="rgb(0,0,0)" stroke-width="0.50"/>
	<line x1="49.10" y1="24.96" x2="49.20" y2="24.96" stroke="rgb(0,0,0)" stroke-width="0.50"/>
	<line x1="49.20" y1="24.96" x2="49.30" y2="24.96" stroke="rgb(0,0,0)" stroke-width="0.50"/>
	<line x1="49.30" y1="24.96" x2="49.40" y2="24.96" stroke="rgb(0,0,0)" stroke-width="0.50"/>
	<line x1="49.40" y1="24.96" x2="49.50" y2="24.96" stroke="rgb(0,0,0)" stroke-width="0.50"/>
	<line x1="49.50" y1="24.96" x2="49.60" y2="24.96" stroke="rgb(0,0,0)" stroke-width="0.50"/>
	<line x1="49.60" y1="24.96" x2="49.70" y2="24.96" stroke="rgb(0,0,0)" stroke-width="0.50"/>
	<line x1="49.70" y1="24.96" x2="49.80" y2="24.96" stroke="rgb(0,0,0)" stroke-width="0.50"/>
	<line x1="49.80" y1="24.96" x2="49.90" y2="24.96" stroke="rgb(0,0,0)" stroke-width="0.50"/>
	<line x1="49.90" y1="24.96" x2="50.00" y2="24.96" stroke="rgb(0,0,0)" stroke-width="0.50"/>
	<line x1="50.00" y1="24.96" x2="50.10" y2="24.96" stroke="rgb(0,0,0)" stroke-width="0.50"/>
	<line x1="25.00" y1="50.00" x2="24.90" y2="35.00" stroke="rgb(0,0,0)" stroke-width="0.50"/>
	<line x1="24.90" y1="35.00" x2="24.80" y2="30.00" stroke="rgb(0,0,0)" stroke-width="0.50"/>
	<line x1="24.80" y1="30.00" x2="24.70" y2="28.33" stroke="rgb(0,0,0)" stroke-width="0.50"/>
	<line x1="24.70" y1="28.33" x2="24.60" y2="27.50" stroke="rgb(0,0,0)" stroke-width="0.50"/>
	<line x1="24.60" y1="27.50" x2="24.50" y2="27.00" stroke="rgb(0,0,0)" stroke-width="0.50"/>
	<line x1="24.50" y1="27.00" x2="24.40" y2="26.67" stroke="rgb(0,0,0)" stroke-width="0.50"/>
	<line x1="24.40" y1="26.67" x2="24.30" y2="26.43" stroke="rgb(0,0,0)" stroke-width="0.50"/>
	<line x1="24.30" y1="26.43" x2="24.20" y2="26.25" stroke="rgb(0,0,0)" stroke-width="0.50"/>
	<line x1="24.20" y1="26.25" x2="24.10" y2="26.11" stroke="rgb(0,0,0)" stroke-width="0.50"/>
	<line x1="24.10" y1="26.11" x2="24.00" y2="26.00" stroke="rgb(0,0,0)" stroke-width="0.50"/>
	<line x1="24.00" y1="26.00" x2="23.90" y2="25.91" stroke="rgb(0,0,0)" stroke-width="0.50"/>
	<line x1="23.90" y1="25.91" x2="23.80" y2="25.83" stroke="rgb(0,0,0)" stroke-width="0.50"/>
	<line x1="23.80" y1="25.83" x2="23.70" y2="25.77" stroke="rgb(0,0,0)" stroke-width="0.50"/>
	<line x1="23.70" y1="25.77" x2="23.60" y2="25.71" stroke="rgb(0,0,0)" stroke-width="0.50"/>
	<line x1="23.60" y1="25.71" x2="23.50" y2="25.67" stroke="rgb(0,0,0)" stroke-width="0.50"/>
	<line x1="23.50" y1="25.67" x2="23.40" y2="25.62" stroke="rgb(0,0,0)" stroke-width="0.50"/>
	<line x1="23.40" y1="25.62" x2="23.30" y2="25.59" stroke="rgb(0,0,0)" stroke-width="0.50"/>
	<line x1="23.30" y1="25.59" x2="23.20" y2="25.56" stroke="rgb(0,0,0)" stroke-width="0.50"/>
	<line x1="23.20" y1="25.56" x2="23.10" y2="25.53" stroke="rgb(0,0,0)" stroke-width="0.50"/>
	<line x1="23.10" y1="25.53" x2="23.00" y2="25.50" stroke="rgb(0,0,0)" stroke-width="0.50"/>
	<line x1="23.00" y1="25.50" x2="22.90" y2="25.48" stroke="rgb(0,0,0)" stroke-width="0.50"/>
	<line x1="22.90" y1="25.48" x2="22.80" y2="25.45" stroke="rgb(0,0,0)" stroke-width="0.50"/>
	<line x1="22.80" y1="25.45" x2="22.70" y2="25.43" stroke="rgb(0,0,0)" stroke-width="0.50"/>
	<line x1="22.70" y1="25.43" x2="22.60" y2="25.42" stroke="rgb(0,0,0)" stroke-width="0.50"/>
	<line x1="22.60" y1="25.42" x2="22.50" y2="25.40" stroke="rgb(0,0,0)" stroke-width="0.50"/>
	<line x1="22.50" y1="25.40" x2="22.40" y2="25.38" stroke="rgb(0,0,0)" stroke-width="0.50"/>
	<line x1="22.40" y1="25.38" x2="22.30" y2="25.37" stroke="rgb(0,0,0)" stroke-width="0.50"/>
	<line x1="22.30" y1="25.37" x2="22.20" y2="25.36" stroke="rgb(0,0,0)" stroke-width="0.50"/>
	<line x1="22.20" y1="25.36" x2="22.10" y2="25.34" stroke="rgb(0,0,0)" stroke-width="0.50"/>
	<line x1="22.10" y1="25.34" x2="22.00" y2="25.33" stroke="rgb(0,0,0)" stroke-width="0.50"/>
	<line x1="22.00" y1="25.33" x2="21.90" y2="25.32" stroke="rgb(0,0,0)" stroke-width="0.50"/>
	<line x1="21.90" y1="25.32" x2="21.80" y2="25.31" stroke="rgb(0,0,0)" stroke-width="0.50"/>
	<line x1="21.80" y1="25.31" x2="21.70" y2="25.30" stroke="rgb(0,0,0)" stroke-width="0.50"/>
	<line x1="21.70" y1="25.30" x2="21.60" y2="25.29" stroke="rgb(0,0,0)" stroke-width="0.50"/>
	<line x1="21.60" y1="25.29" x2="21.50" y2="25.29" stroke="rgb(0,0,0)" stroke-width="0.50"/>
	<line x1="21.50" y1="25.29" x2="21.40" y2="25.28" stroke="rgb(0,0,0)" stroke-width="0.50"/>
	<line x1="21.40" y1="25.28" x2="21.30" y2="25.27" stroke="rgb(0,0,0)" stroke-width="0.50"/>
	<line x1="21.30" y1="25.27" x2="21.20" y2="25.26" stroke="rgb(0,0,0)" stroke-width="0.50"/>
	<line x1="21.20" y1="25.26" x2="21.10" y2="25.26" stroke="rgb(0,0,0)" stroke-width="0.50"/>
	<line x1="21.10" y1="25.26" x2="21.00" y2="25.25" stroke="rgb(0,0,0)" stroke-width="0.50"/>
	<line x1="21.00" y1="25.25" x2="20.90" y2="25.24" stroke="rgb(0,0,0)" stroke-width="0.50"/>
	<line x1="20.90" y1="25.24" x2="20.80" y2="25.24" stroke="rgb(0,0,0)" stroke-width="0.50"/>
	<line x1="20.80" y1="25.24" x2="20.70" y2="25.23" stroke="rgb(0,0,0)" stroke-width="0.50"/>
	<line x1="20.70" y1="25.23" x2="20.60" y2="25.23" stroke="rgb(0,0,0)" stroke-width="0.50"/>
	<line x1="20.60" y1="25.23" x2="20.50" y2="25.22" stroke="rgb(0,0,0)" stroke-width="0.50"/>
	<line x1="20.50" y1="25.22" x2="20.40" y2="25.22" stroke="rgb(0,0,0)" stroke-width="0.50"/>
	<line x1="20.40" y1="25.22" x2="20.30" y2="25.21" stroke="rgb(0,0,0)" stroke-width="0.50"/>
	<line x1="20.30" y1="25.21" x2="20.20" y2="25.21" stroke="rgb(0,0,0)" stroke-width="0.50"/>
	<line x1="20.20" y1="25.21" x2="20.10" y2="25.20" stroke="rgb(0,0,0)" stroke-width="0.50"/>
	<line x1="20.10" y1="25.20" x2="20.00" y2="25.20" stroke="rgb(0,0,0)" stroke-width="0.50"/>
	<line x1="20.00" y1="25.20" x2="19.90" y2="25.20" stroke="rgb(0,0,0)" stroke-width="0.50"/>
	<line x1="19.90" y1="25.20" x2="19.80" y2="25.19" stroke="rgb(0,0,0)" stroke-width="0.50"/>
	<line x1="19.80" y1="25.19" x2="19.70" y2="25.19" stroke="rgb(0,0,0)" stroke-width="0.50"/>
	<line x1="19.70" y1="25.19" x2="19.60" y2="25.19" stroke="rgb(0,0,0)" stroke-width="0.50"/>
	<line x1="19.60" y1="25.19" x2="19.50" y2="25.18" stroke="rgb(0,0,0)" stroke-width="0.50"/>
	<line x1="19.50" y1="25.18" x2="19.40" y2="25.18" stroke="rgb(0,0,0)" stroke-width="0.50"/>
	<line x1="19.40" y1="25.18" x2="19.30" y2="25.18" stroke="rgb(0,0,0)" stroke-width="0.50"/>
	<line x1="19.30" y1="25.18" x2="19.20" y2="25.17" stroke="rgb(0,0,0)" stroke-width="0.50"/>
	<line x1="19.20" y1="25.17" x2="19.10" y2="25.17" stroke="rgb(0,0,0)" stroke-width="0.50"/>
	<line x1="19.10" y1="25.17" x2="19.00" y2="25.17" stroke="rgb(0,0,0)" stroke-width="0.50"/>
	<line x1="19.00" y1="25.17" x2="18.90" y2="25.16" stroke="rgb(0,0,0)" stroke-width="0.50"/>
	<line x1="18.90" y1="25.16" x2="18.80" y2="25.16" stroke="rgb(0,0,0)" stroke-width="0.50"/>
	<line x1="18.80" y1="25.16" x2="18.70" y2="25.16" stroke="rgb(0,0,0)" stroke-width="0.50"/>
	<line x1="18.70" y1="25.16" x2="18.60" y2="25.16" stroke="rgb(0,0,0)" stroke-width="0.50"/>
	<line x1="18.60" y1="25.16" x2="18.50" y2="25.15" stroke="rgb(0,0,0)" stroke-width="0.50"/>
	<line x1="18.50" y1="25.15" x2="18.40" y2="25.15" stroke="rgb(0,0,0)" stroke-width="0.50"/>
	<line x1="18.40" y1="25.15" x2="18.30" y2="25.15" stroke="rgb(0,0,0)" stroke-width="0.50"/>
	<line x1="18.30" y1="25.15" x2="18.20" y2="25.15" stroke="rgb(0,0,0)" stroke-width="0.50"/>
	<line x1="18.20" y1="25.15" x2="18.10" y2="25.14" stroke="rgb(0,0,0)" stroke-width="0.50"/>
	<line x1="18.10" y1="25.14" x2="18.00" y2="25.14" stroke="rgb(0,0,0)" stroke-width="0.50"/>
	<line x1="18.00" y1="25.14" x2="17.90" y2="25.14" stroke="rgb(0,0,0)" stroke-width="0.50"/>
	<line x1="17.90" y1="25.14" x2="17.80" y2="25.14" stroke="rgb(0,0,0)" stroke-width="0.50"/>
	<line x1="17.80" y1="25.14" x2="17.70" y2="25.14" stroke="rgb(0,0,0)" stroke-width="0.50"/>
	<line x1="17.70" y1="25.14" x2="17.60" y2="25.14" stroke="rgb(0,0,0)" stroke-width="0.50"/>
	<line x1="17.60" y1="25.14" x2="17.50" y2="25.13" stroke="rgb(0,0,0)" stroke-width="0.50"/>
	<line x1="17.50" y1="25.13" x2="17.40" y2="25.13" stroke="rgb(0,0,0)" stroke-width="0.50"/>
	<line x1="17.40" y1="25.13" x2="17.30" y2="25.13" stroke="rgb(0,0,0)" stroke-width="0.50"/>
	<line x1="17.30" y1="25.13" x2="17.20" y2="25.13" stroke="rgb(0,0,0)" stroke-width="0.50"/>
	<line x1="17.20" y1="25.13" x2="17.10" y2="25.13" stroke="rgb(0,0,0)" stroke-width="0.50"/>
	<line x1="17.10" y1="25.13" x2="17.00" y2="25.12" stroke="rgb(0,0,0)" stroke-width="0.50"/>
	<line x1="17.00" y1="25.12" x2="16.90" y2="25.12" stroke="rgb(0,0,0)" stroke-width="0.50"/>
	<line x1="16.90" y1="25.12" x2="16.80" y2="25.12" stroke="rgb(0,0,0)" stroke-width="0.50"/>
	<line x1="16.80" y1="25.12" x2="16.70" y2="25.12" stroke="rgb(0,0,0)" stroke-width="0.50"/>
	<line x1="16.70" y1="25.12" x2="16.60" y2="25.12" stroke="rgb(0,0,0)" stroke-width="0.50"/>
	<line x1="16.60" y1="25.12" x2="16.50" y2="25.12" stroke="rgb(0,0,0)" stroke-width="0.50"/>
	<line x1="16.50" y1="25.12" x2="16.40" y2="25.12" stroke="rgb(0,0,0)" stroke-width="0.50"/>
	<line x1="16.40" y1="25.12" x2="16.30" y2="25.11" stroke="rgb(0,0,0)" stroke-width="0.50"/>
	<line x1="16.30" y1="25.11" x2="16.20" y2="25.11" stroke="rgb(0,0,0)" stroke-width="0.50"/>
	<line x1="16.20" y1="25.11" x2="16.10" y2="25.11" stroke="rgb(0,0,0)" stroke-width="0.50"/>
	<line x1="16.10" y1="25.11" x2="16.00" y2="25.11" stroke="rgb(0,0,0)" stroke-width="0.50"/>
	<line x1="16.00" y1="25.11" x2="15.90" y2="25.11" stroke="rgb(0,0,0)" stroke-width="0.50"/>
	<line x1="15.90" y1="25.11" x2="15.80" y2="25.11" stroke="rgb(0,0,0)" stroke-width="0.50"/>
	<line x1="15.80" y1="25.11" x2="15.70" y2="25.11" stroke="rgb(0,0,0)" stroke-width="0.50"/>
	<line x1="15.70" y1="25.11" x2="15.60" y2="25.11" stroke="rgb(0,0,0)" stroke-width="0.50"/>
	<line x1="15.60" y1="25.11" x2="15.50" y2="25.11" stroke="rgb(0,0,0)" stroke-width="0.50"/>
	<line x1="15.50" y1="25.11" x2="15.40" y2="25.10" stroke="rgb(0,0,0)" stroke-width="0.50"/>
	<line x1="15.40" y1="25.10" x2="15.30" y2="25.10" stroke="rgb(0,0,0)" stroke-width="0.50"/>
	<line x1="15.30" y1="25.10" x2="15.20" y2="25.10" stroke="rgb(0,0,0)" stroke-width="0.50"/>
	<line x1="15.20" y1="25.10" x2="15.10" y2="25.10" stroke="rgb(0,0,0)" stroke-width="0.50"/>
	<line x1="15.10" y1="25.10" x2="15.00" y2="25.10" stroke="rgb(0,0,0)" stroke-width="0.50"/>
	<line x1="15.00" y1="25.10" x2="14.90" y2="25.10" stroke="rgb(0,0,0)" stroke-width="0.50"/>
	<line x1="14.90" y1="25.10" x2="14.80" y2="25.10" stroke="rgb(0,0,0)" stroke-width="0.50"/>
	<line x1="14.80" y1="25.10" x2="14.70" y2="25.10" stroke="rgb(0,0,0)" stroke-width="0.50"/>
	<line x1="14.70" y1="25.10" x2="14.60" y2="25.10" stroke="rgb(0,0,0)" stroke-width="0.50"/>
	<line x1="14.60" y1="25.10" x2="14.50" y2="25.10" stroke="rgb(0,0,0)" stroke-width="0.50"/>
	<line x1="14.50" y1="25.10" x2="14.40" y2="25.09" stroke="rgb(0,0,0)" stroke-width="0.50"/>
	<line x1="14.40" y1="25.09" x2="14.30" y2="25.09" stroke="rgb(0,0,0)" stroke-width="0.50"/>
	<line x1="14.30" y1="25.09" x2="14.20" y2="25.09" stroke="rgb(0,0,0)" stroke-width="0.50"/>
	<line x1="14.20" y1="25.09" x2="14.10" y2="25.09" stroke="rgb(0,0,0)" stroke-width="0.50"/>
	<line x1="14.10" y1="25.09" x2="14.00" y2="25.09" stroke="rgb(0,0,0)" stroke-width="0.50"/>
	<line x1="14.00" y1="25.09" x2="13.90" y2="25.09" stroke="rgb(0,0,0)" stroke-width="0.50"/>
	<line x1="13.90" y1="25.09" x2="13.80" y2="25.09" stroke="rgb(0,0,0)" stroke-width="0.50"/>
	<line x1="13.80" y1="25.09" x2="13.70" y2="25.09" stroke="rgb(0,0,0)" stroke-width="0.50"/>
	<line x1="13.70" y1="25.09" x2="13.60" y2="25.09" stroke="rgb(0,0,0)" stroke-width="0.50"/>
	<line x1="13.60" y1="25.09" x2="13.50" y2="25.09" stroke="rgb(0,0,0)" stroke-width="0.50"/>
	<line x1="13.50" y1="25.09" x2="13.40" y2="25.09" stroke="rgb(0,0,0)" stroke-width="0.50"/>
	<line x1="13.40" y1="25.09" x2="13.30" y2="25.09" stroke="rgb(0,0,0)" stroke-width="0.50"/>
	<line x1="13.30" y1="25.09" x2="13.20" y2="25.08" stroke="rgb(0,0,0)" stroke-width="0.50"/>
	<line x1="13.20" y1="25.08" x2="13.10" y2="25.08" stroke="rgb(0,0,0)" stroke-width="0.50"/>
	<line x1="13.10" y1="25.08" x2="13.00" y2="25.08" stroke="rgb(0,0,0)" stroke-width="0.50"/>
	<line x1="13.00" y1="25.08" x2="12.90" y2="25.08" stroke="rgb(0,0,0)" stroke-width="0.50"/>
	<line x1="12.90" y1="25.08" x2="12.80" y2="25.08" stroke="rgb(0,0,0)" stroke-width="0.50"/>
	<line x1="12.80" y1="25.08" x2="12.70" y2="25.08" stroke="rgb(0,0,0)" stroke-width="0.50"/>
	<line x1="12.70" y1="25.08" x2="12.60" y2="25.08" stroke="rgb(0,0,0)" stroke-width="0.50"/>
	<line x1="12.60" y1="25.08" x2="12.50" y2="25.08" stroke="rgb(0,0,0)" stroke-width="0.50"/>
	<line x1="12.50" y1="25.08" x2="12.40" y2="25.08" stroke="rgb(0,0,0)" stroke-width="0.50"/>
	<line x1="12.40" y1="25.08" x2="12.30" y2="25.08" stroke="rgb(0,0,0)" stroke-width="0.50"/>
	<line x1="12.30" y1="25.08" x2="12.20" y2="25.08" stroke="rgb(0,0,0)" stroke-width="0.50"/>
	<line x1="12.20" y1="25.08" x2="12.10" y2="25.08" stroke="rgb(0,0,0)" stroke-width="0.50"/>
	<line x1="12.10" y1="25.08" x2="12.00" y2="25.08" stroke="rgb(0,0,0)" stroke-width="0.50"/>
	<line x1="12.00" y1="25.08" x2="11.90" y2="25.08" stroke="rgb(0,0,0)" stroke-width="0.50"/>
	<line x1="11.90" y1="25.08" x2="11.80" y2="25.08" stroke="rgb(0,0,0)" stroke-width="0.50"/>
	<line x1="11.80" y1="25.08" x2="11.70" y2="25.08" stroke="rgb(0,0,0)" stroke-width="0.50"/>
	<line x1="11.70" y1="25.08" x2="11.60" y2="25.07" stroke="rgb(0,0,0)" stroke-width="0.50"/>
	<line x1="11.60" y1="25.07" x2="11.50" y2="25.07" stroke="rgb(0,0,0)" stroke-width="0.50"/>
	<line x1="11.50" y1="25.07" x2="11.40" y2="25.07" stroke="rgb(0,0,0)" stroke-width="0.50"/>
	<line x1="11.40" y1="25.07" x2="11.30" y2="25.07" stroke="rgb(0,0,0)" stroke-width="0.50"/>
	<line x1="11.30" y1="25.07" x2="11.20" y2="25.07" stroke="rgb(0,0,0)" stroke-width="0.50"/>
	<line x1="11.20" y1="25.07" x2="11.10" y2="25.07" stroke="rgb(0,0,0)" stroke-width="0.50"/>
	<line x1="11.10" y1="25.07" x2="11.00" y2="25.07" stroke="rgb(0,0,0)" stroke-width="0.50"/>
	<line x1="11.00" y1="25.07" x2="10.90" y2="25.07" stroke="rgb(0,0,0)" stroke-width="0.50"/>
	<line x1="10.90" y1="25.07" x2="10.80" y2="25.07" stroke="rgb(0,0,0)" stroke-width="0.50"/>
	<line x1="10.80" y1="25.07" x2="10.70" y2="25.07" stroke="rgb(0,0,0)" stroke-width="0.50"/>
	<line x1="10.70" y1="25.07" x2="10.60" y2="25.07" stroke="rgb(0,0,0)" stroke-width="0.50"/>
	<line x1="10.60" y1="25.07" x2="10.50" y2="25.07" stroke="rgb(0,0,0)" stroke-width="0.50"/>
	<line x1="10.50" y1="25.07" x2="10.40" y2="25.07" stroke="rgb(0,0,0)" stroke-width="0.50"/>
	<line x1="10.40" y1="25.07" x2="10.30" y2="25.07" stroke="rgb(0,0,0)" stroke-width="0.50"/>
	<line x1="10.30" y1="25.07" x2="10.20" y2="25.07" stroke="rgb(0,0,0)" stroke-width="0.50"/>
	<line x1="10.20" y1="25.07" x2="10.10" y2="25.07" stroke="rgb(0,0,0)" stroke-width="0.50"/>
	<line x1="10.10" y1="25.07" x2="10.00" y2="25.07" stroke="rgb(0,0,0)" stroke-width="0.50"/>
	<line x1="10.00" y1="25.07" x2="9.90" y2="25.07" stroke="rgb(0,0,0)" stroke-width="0.50"/>
	<line x1="9.90" y1="25.07" x2="9.80" y2="25.07" stroke="rgb(0,0,0)" stroke-width="0.50"/>
	<line x1="9.80" y1="25.07" x2="9.70" y2="25.07" stroke="rgb(0,0,0)" stroke-width="0.50"/>
	<line x1="9.70" y1="25.07" x2="9.60" y2="25.06" stroke="rgb(0,0,0)" stroke-width="0.50"/>
	<line x1="9.60" y1="25.06" x2="9.50" y2="25.06" stroke="rgb(0,0,0)" stroke-width="0.50"/>
	<line x1="9.50" y1="25.06" x2="9.40" y2="25.06" stroke="rgb(0,0,0)" stroke-width="0.50"/>
	<line x1="9.40" y1="25.06" x2="9.30" y2="25.06" stroke="rgb(0,0,0)" stroke-width="0.50"/>
	<line x1="9.30" y1="25.06" x2="9.20" y2="25.06" stroke="rgb(0,0,0)" stroke-width="0.50"/>
	<line x1="9.20" y1="25.06" x2="9.10" y2="25.06" stroke="rgb(0,0,0)" stroke-width="0.50"/>
	<line x1="9.10" y1="25.06" x2="9.00" y2="25.06" stroke="rgb(0,0,0)" stroke-width="0.50"/>
	<line x1="9.00" y1="25.06" x2="8.90" y2="25.06" stroke="rgb(0,0,0)" stroke-width="0.50"/>
	<line x1="8.90" y1="25.06" x2="8.80" y2="25.06" stroke="rgb(0,0,0)" stroke-width="0.50"/>
	<line x1="8.80" y1="25.06" x2="8.70" y2="25.06" stroke="rgb(0,0,0)" stroke-width="0.50"/>
	<line x1="8.70" y1="25.06" x2="8.60" y2="25.06" stroke="rgb(0,0,0)" stroke-width="0.50"/>
	<line x1="8.60" y1="25.06" x2="8.50" y2="25.06" stroke="rgb(0,0,0)" stroke-width="0.50"/>
	<line x1="8.50" y1="25.06" x2="8.40" y2="25.06" stroke="rgb(0,0,0)" stroke-width="0.50"/>
	<line x1="8.40" y1="25.06" x2="8.30" y2="25.06" stroke="rgb(0,0,0)" stroke-width="0.50"/>
	<line x1="8.30" y1="25.06" x2="8.20" y2="25.06" stroke="rgb(0,0,0)" stroke-width="0.50"/>
	<line x1="8.20" y1="25.06" x2="8.10" y2="25.06" stroke="rgb(0,0,0)" stroke-width="0.50"/>
	<line x1="8.10" y1="25.06" x2="8.00" y2="25.06" stroke="rgb(0,0,0)" stroke-width="0.50"/>
	<line x1="8.00" y1="25.06" x2="7.90" y2="25.06" stroke="rgb(0,0,0)" stroke-width="0.50"/>
	<line x1="7.90" y1="25.06" x2="7.80" y2="25.06" stroke="rgb(0,0,0)" stroke-width="0.50"/>
	<line x1="7.80" y1="25.06" x2="7.70" y2="25.06" stroke="rgb(0,0,0)" stroke-width="0.50"/>
	<line x1="7.70" y1="25.06" x2="7.60" y2="25.06" stroke="rgb(0,0,0)" stroke-width="0.50"/>
	<line x1="7.60" y1="25.06" x2="7.50" y2="25.06" stroke="rgb(0,0,0)" stroke-width="0.50"/>
	<line x1="7.50" y1="25.06" x2="7.40" y2="25.06" stroke="rgb(0,0,0)" stroke-width="0.50"/>
	<line x1="7.40" y1="25.06" x2="7.30" y2="25.06" stroke="rgb(0,0,0)" stroke-width="0.50"/>
	<line x1="7.30" y1="25.06" x2="7.20" y2="25.06" stroke="rgb(0,0,0)" stroke-width="0.50"/>
	<line x1="7.20" y1="25.06" x2="7.10" y2="25.06" stroke="rgb(0,0,0)" stroke-width="0.50"/>
	<line x1="7.10" y1="25.06" x2="7.00" y2="25.06" stroke="rgb(0,0,0)" stroke-width="0.50"/>
	<line x1="7.00" y1="25.06" x2="6.90" y2="25.06" stroke="rgb(0,0,0)" stroke-width="0.50"/>
	<line x1="6.90" y1="25.06" x2="6.80" y2="25.05" stroke="rgb(0,0,0)" stroke-width="0.50"/>
	<line x1="6.80" y1="25.05" x2="6.70" y2="25.05" stroke="rgb(0,0,0)" stroke-width="0.50"/>
	<line x1="6.70" y1="25.05" x2="6.60" y2="25.05" stroke="rgb(0,0,0)" stroke-width="0.50"/>
	<line x1="6.60" y1="25.05" x2="6.50" y2="25.05" stroke="rgb(0,0,0)" stroke-width="0.50"/>
	<line x1="6.50" y1="25.05" x2="6.40" y2="25.05" stroke="rgb(0,0,0)" stroke-width="0.50"/>
	<line x1="6.40" y1="25.05" x2="6.30" y2="25.05" stroke="rgb(0,0,0)" stroke-width="0.50"/>
	<line x1="6.30" y1="25.05" x2="6.20" y2="25.05" stroke="rgb(0,0,0)" stroke-width="0.50"/>
	<line x1="6.20" y1="25.05" x2="6.10" y2="25.05" stroke="rgb(0,0,0)" stroke-width="0.50"/>
	<line x1="6.10" y1="25.05" x2="6.00" y2="25.05" stroke="rgb(0,0,0)" stroke-width="0.50"/>
	<line x1="6.00" y1="25.05" x2="5.90" y2="25.05" stroke="rgb(0,0,0)" stroke-width="0.50"/>
	<line x1="5.90" y1="25.05" x2="5.80" y2="25.05" stroke="rgb(0,0,0)" stroke-width="0.50"/>
	<line x1="5.80" y1="25.05" x2="5.70" y2="25.05" stroke="rgb(0,0,0)" stroke-width="0.50"/>
	<line x1="5.70" y1="25.05" x2="5.60" y2="25.05" stroke="rgb(0,0,0)" stroke-width="0.50"/>
	<line x1="5.60" y1="25.05" x2="5.50" y2="25.05" stroke="rgb(0,0,0)" stroke-width="0.50"/>
	<line x1="5.50" y1="25.05" x2="5.40" y2="25.05" stroke="rgb(0,0,0)" stroke-width="0.50"/>
	<line x1="5.40" y1="25.05" x2="5.30" y2="25.05" stroke="rgb(0,0,0)" stroke-width="0.50"/>
	<line x1="5.30" y1="25.05" x2="5.20" y2="25.05" stroke="rgb(0,0,0)" stroke-width="0.50"/>
	<line x1="5.20" y1="25.05" x2="5.10" y2="25.05" stroke="rgb(0,0,0)" stroke-width="0.50"/>
	<line x1="5.10" y1="25.05" x2="5.00" y2="25.05" stroke="rgb(0,0,0)" stroke-width="0.50"/>
	<line x1="5.00" y1="25.05" x2="4.90" y2="25.05" stroke="rgb(0,0,0)" stroke-width="0.50"/>
	<line x1="4.90" y1="25.05" x2="4.80" y2="25.05" stroke="rgb(0,0,0)" stroke-width="0.50"/>
	<line x1="4.80" y1="25.05" x2="4.70" y2="25.05" stroke="rgb(0,0,0)" stroke-width="0.50"/>
	<line x1="4.70" y1="25.05" x2="4.60" y2="25.05" stroke="rgb(0,0,0)" stroke-width="0.50"/>
	<line x1="4.60" y1="25.05" x2="4.50" y2="25.05" stroke="rgb(0,0,0)" stroke-width="0.50"/>
	<line x1="4.50" y1="25.05" x2="4.40" y2="25.05" stroke="rgb(0,0,0)" stroke-width="0.50"/>
	<line x1="4.40" y1="25.05" x2="4.30" y2="25.05" stroke="rgb(0,0,0)" stroke-width="0.50"/>
	<line x1="4.30" y1="25.05" x2="4.20" y2="25.05" stroke="rgb(0,0,0)" stroke-width="0.50"/>
	<line x1="4.20" y1="25.05" x2="4.10" y2="25.05" stroke="rgb(0,0,0)" stroke-width="0.50"/>
	<line x1="4.10" y1="25.05" x2="4.00" y2="25.05" stroke="rgb(0,0,0)" stroke-width="0.50"/>
	<line x1="4.00" y1="25.05" x2="3.90" y2="25.05" stroke="rgb(0,0,0)" stroke-width="0.50"/>
	<line x1="3.90" y1="25.05" x2="3.80" y2="25.05" stroke="rgb(0,0,0)" stroke-width="0.50"/>
	<line x1="3.80" y1="25.05" x2="3.70" y2="25.05" stroke="rgb(0,0,0)" stroke-width="0.50"/>
	<line x1="3.70" y1="25.05" x2="3.60" y2="25.05" stroke="rgb(0,0,0)" stroke-width="0.50"/>
	<line x1="3.60" y1="25.05" x2="3.50" y2="25.05" stroke="rgb(0,0,0)" stroke-width="0.50"/>
	<line x1="3.50" y1="25.05" x2="3.40" y2="25.05" stroke="rgb(0,0,0)" stroke-width="0.50"/>
	<line x1="3.40" y1="25.05" x2="3.30" y2="25.05" stroke="rgb(0,0,0)" stroke-width="0.50"/>
	<line x1="3.30" y1="25.05" x2="3.20" y2="25.05" stroke="rgb(0,0,0)" stroke-width="0.50"/>
	<line x1="3.20" y1="25.05" x2="3.10" y2="25.05" stroke="rgb(0,0,0)" stroke-width="0.50"/>
	<line x1="3.10" y1="25.05" x2="3.00" y2="25.05" stroke="rgb(0,0,0)" stroke-width="0.50"/>
	<line x1="3.00" y1="25.05" x2="2.90" y2="25.05" stroke="rgb(0,0,0)" stroke-width="0.50"/>
	<line x1="2.90" y1="25.05" x2="2.80" y2="25.05" stroke="rgb(0,0,0)" stroke-width="0.50"/>
	<line x1="2.80" y1="25.05" x2="2.70" y2="25.04" stroke="rgb(0,0,0)" stroke-width="0.50"/>
	<line x1="2.70" y1="25.04" x2="2.60" y2="25.04" stroke="rgb(0,0,0)" stroke-width="0.50"/>
	<line x1="2.60" y1="25.04" x2="2.50" y2="25.04" stroke="rgb(0,0,0)" stroke-width="0.50"/>
	<line x1="2.50" y1="25.04" x2="2.40" y2="25.04" stroke="rgb(0,0,0)" stroke-width="0.50"/>
	<line x1="2.40" y1="25.04" x2="2.30" y2="25.04" stroke="rgb(0,0,0)" stroke-width="0.50"/>
	<line x1="2.30" y1="25.04" x2="2.20" y2="25.04" stroke="rgb(0,0,0)" stroke-width="0.50"/>
	<line x1="2.20" y1="25.04" x2="2.10" y2="25.04" stroke="rgb(0,0,0)" stroke-width="0.50"/>
	<line x1="2.10" y1="25.04" x2="2.00" y2="25.04" stroke="rgb(0,0,0)" stroke-width="0.50"/>
	<line x1="2.00" y1="25.04" x2="1.90" y2="25.04" stroke="rgb(0,0,0)" stroke-width="0.50"/>
	<line x1="1.90" y1="25.04" x2="1.80" y2="25.04" stroke="rgb(0,0,0)" stroke-width="0.50"/>
	<line x1="1.80" y1="25.04" x2="1.70" y2="25.04" stroke="rgb(0,0,0)" stroke-width="0.50"/>
	<line x1="1.70" y1="25.04" x2="1.60" y2="25.04" stroke="rgb(0,0,0)" stroke-width="0.50"/>
	<line x1="1.60" y1="25.04" x2="1.50" y2="25.04" stroke="rgb(0,0,0)" stroke-width="0.50"/>
	<line x1="1.50" y1="25.04" x2="1.40" y2="25.04" stroke="rgb(0,0,0)" stroke-width="0.50"/>
	<line x1="1.40" y1="25.04" x2="1.30" y2="25.04" stroke="rgb(0,0,0)" stroke-width="0.50"/>
	<line x1="1.30" y1="25.04" x2="1.20" y2="25.04" stroke="rgb(0,0,0)" stroke-width="0.50"/>
	<line x1="1.20" y1="25.04" x2="1.10" y2="25.04" stroke="rgb(0,0,0)" stroke-width="0.50"/>
	<line x1="1.10" y1="25.04" x2="1.00" y2="25.04" stroke="rgb(0,0,0)" stroke-width="0.50"/>
	<line x1="1.00" y1="25.04" x2="0.90" y2="25.04" stroke="rgb(0,0,0)" stroke-width="0.50"/>
	<line x1="0.90" y1="25.04" x2="0.80" y2="25.04" stroke="rgb(0,0,0)" stroke-width="0.50"/>
	<line x1="0.80" y1="25.04" x2="0.70" y2="25.04" stroke="rgb(0,0,0)" stroke-width="0.50"/>
	<line x1="0.70" y1="25.04" x2="0.60" y2="25.04" stroke="rgb(0,0,0)" stroke-width="0.50"/>
	<line x1="0.60" y1="25.04" x2="0.50" y2="25.04" stroke="rgb(0,0,0)" stroke-width="0.50"/>
	<line x1="0.50" y1="25.04" x2="0.40" y2="25.04" stroke="rgb(0,0,0)" stroke-width="0.50"/>
	<line x1="0.40" y1="25.04" x2="0.30" y2="25.04" stroke="rgb(0,0,0)" stroke-width="0.50"/>
	<line x1="0.30" y1="25.04" x2="0.20" y2="25.04" stroke="rgb(0,0,0)" stroke-width="0.50"/>
	<line x1="0.20" y1="25.04" x2="0.10" y2="25.04" stroke="rgb(0,0,0)" stroke-width="0.50"/>
	<line x1="0.10" y1="25.04" x2="0.00" y2="25.04" stroke="rgb(0,0,0)" stroke-width="0.50"/>
	<line x1="0.00" y1="25.04" x2="-0.10" y2="25.04" stroke="rgb(0,0,0)" stroke-width="0.50"/>
</svg>