<svg version="1.1" xmlns="https://www.w3.org/2000/svg" width="420.00" height="360.00">
	<line x1="10.00" y1="180.00" x2="30.00" y2="190.00" stroke="rgb(240,52,52)" stroke-width="4.00"/>
	<line x1="30.00" y1="190.00" x2="50.00" y2="160.00" stroke="rgb(240,52,52)" stroke-width="4.00"/>
	<line x1="50.00" y1="160.00" x2="70.00" y2="210.00" stroke="rgb(240,52,52)" stroke-width="4.00"/>
	<line x1="70.00" y1="210.00" x2="90.00" y2="140.00" stroke="rgb(240,52,52)" stroke-width="4.00"/>
	<line x1="90.00" y1="140.00" x2="110.00" y2="230.00" stroke="rgb(240,52,52)" stroke-width="4.00"/>
	<line x1="110.00" y1="230.00" x2="130.00" y2="120.00" stroke="rgb(240,52,52)" stroke-width="4.00"/>
	<line x1="130.00" y1="120.00" x2="150.00" y2="250.00" stroke="rgb(240,52,52)" stroke-width="4.00"/>
	<line x1="150.00" y1="250.00" x2="170.00" y2="100.00" stroke="rgb(240,52,52)" stroke-width="4.00"/>
	<line x1="170.00" y1="100.00" x2="190.00" y2="270.00" stroke="rgb(240,52,52)" stroke-width="4.00"/>
	<line x1="190.00" y1="270.00" x2="210.00" y2="90.00" stroke="rgb(240,52,52)" stroke-width="4.00"/>
	<line x1="210.00" y1="90.00" x2="230.00" y2="268.00" stroke="rgb(240,52,52)" stroke-width="4.00"/>
	<line x1="230.00" y1="268.00" x2="250.00" y2="96.00" stroke="rgb(240,52,52)" stroke-width="4.00"/>
	<line x1="250.00" y1="96.00" x2="270.00" y2="258.00" stroke="rgb(240,52,52)" stroke-width="4.00"/>
	<line x1="270.00" y1="258.00" x2="290.00" y2="110.00" stroke="rgb(240,52,52)" stroke-width="4.00"/>
	<line x1="290.00" y1="110.00" x2="310.00" y2="240.00" stroke="rgb(240,52,52)" stroke-width="4.00"/>
	<line x1="310.00" y1="240.00" x2="330.00" y2="132.00" stroke="rgb(240,52,52)" stroke-width="4.00"/>
	<line x1="330.00" y1="132.00" x2="350.00" y2="214.00" stroke="rgb(240,52,52)" stroke-width="4.00"/>
	<line x1="350.00" y1="214.00" x2="370.00" y2="162.00" stroke="rgb(240,52,52)" stroke-width="4.00"/>
	<line x1="370.00" y1="162.00" x2="390.00" y2="180.00" stroke="rgb(240,52,52)" stroke-width="4.00"/>
</svg>