<svg version="1.1" xmlns="https://www.w3.org/2000/svg" width="480.00" height="480.00">
	<line x1="240.00" y1="80.00" x2="242.00" y2="80.01" stroke="rgb(250,216,89)" stroke-width="6.00"/>
	<line x1="240.00" y1="400.00" x2="242.00" y2="399.99" stroke="rgb(250,216,89)" stroke-width="6.00"/>
	<line x1="242.00" y1="80.01" x2="244.00" y2="80.05" stroke="rgb(250,216,89)" stroke-width="6.00"/>
	<line x1="242.00" y1="399.99" x2="244.00" y2="399.95" stroke="rgb(250,216,89)" stroke-width="6.00"/>
	<line x1="244.00" y1="80.05" x2="246.00" y2="80.11" stroke="rgb(250,216,89)" stroke-width="6.00"/>
	<line x1="244.00" y1="399.95" x2="246.00" y2="399.89" stroke="rgb(250,216,89)" stroke-width="6.00"/>
	<line x1="246.00" y1="80.11" x2="248.00" y2="80.20" stroke="rgb(250,216,89)" stroke-width="6.00"/>
	<line x1="246.00" y1="399.89" x2="248.00" y2="399.80" stroke="rgb(250,216,89)" stroke-width="6.00"/>
	<line x1="248.00" y1="80.20" x2="250.00" y2="80.31" stroke="rgb(250,216,89)" stroke-width="6.00"/>
	<line x1="248.00" y1="399.80" x2="250.00" y2="399.69" stroke="rgb(250,216,89)" stroke-width="6.00"/>
	<line x1="250.00" y1="80.31" x2="252.00" y2="80.45" stroke="rgb(250,216,89)" stroke-width="6.00"/>
	<line x1="250.00" y1="399.69" x2="252.00" y2="399.55" stroke="rgb(250,216,89)" stroke-width="6.00"/>
	<line x1="252.00" y1="80.45" x2="254.00" y2="80.61" stroke="rgb(250,216,89)" stroke-width="6.00"/>
	<line x1="252.00" y1="399.55" x2="254.00" y2="399.39" stroke="rgb(250,216,89)" stroke-width="6.00"/>
	<line x1="254.00" y1="80.61" x2="256.00" y2="80.80" stroke="rgb(250,216,89)" stroke-width="6.00"/>
	<line x1="254.00" y1="399.39" x2="256.00" y2="399.20" stroke="rgb(250,216,89)" stroke-width="6.00"/>
	<line x1="256.00" y1="80.80" x2="258.00" y2="81.02" stroke="rgb(250,216,89)" stroke-width="6.00"/>
	<line x1="256.00" y1="399.20" x2="258.00" y2="398.98" stroke="rgb(250,216,89)" stroke-width="6.00"/>
	<line x1="258.00" y1="81.02" x2="260.00" y2="81.25" stroke="rgb(250,216,89)" stroke-width="6.00"/>
	<line x1="258.00" y1="398.98" x2="260.00" y2="398.75" stroke="rgb(250,216,89)" stroke-width="6.00"/>
	<line x1="260.00" y1="81.25" x2="262.00" y2="81.52" stroke="rgb(250,216,89)" stroke-width="6.00"/>
	<line x1="260.00" y1="398.75" x2="262.00" y2="398.48" stroke="rgb(250,216,89)" stroke-width="6.00"/>
	<line x1="262.00" y1="81.52" x2="264.00" y2="81.81" stroke="rgb(250,216,89)" stroke-width="6.00"/>
	<line x1="262.00" y1="398.48" x2="264.00" y2="398.19" stroke="rgb(250,216,89)" stroke-width="6.00"/>
	<line x1="264.00" y1="81.81" x2="266.00" y2="82.13" stroke="rgb(250,216,89)" stroke-width="6.00"/>
	<line x1="264.00" y1="398.19" x2="266.00" y2="397.87" stroke="rgb(250,216,89)" stroke-width="6.00"/>
	<line x1="266.00" y1="82.13" x2="268.00" y2="82.47" stroke="rgb(250,216,89)" stroke-width="6.00"/>
	<line x1="266.00" y1="397.87" x2="268.00" y2="397.53" stroke="rgb(250,216,89)" stroke-width="6.00"/>
	<line x1="268.00" y1="82.47" x2="270.00" y2="82.84" stroke="rgb(250,216,89)" stroke-width="6.00"/>
	<line x1="268.00" y1="397.53" x2="270.00" y2="397.16" stroke="rgb(250,216,89)" stroke-width="6.00"/>
	<line x1="270.00" y1="82.84" x2="272.00" y2="83.23" stroke="rgb(250,216,89)" stroke-width="6.00"/>
	<line x1="270.00" y1="397.16" x2="272.00" y2="396.77" stroke="rgb(250,216,89)" stroke-width="6.00"/>
	<line x1="272.00" y1="83.23" x2="274.00" y2="83.65" stroke="rgb(250,216,89)" stroke-width="6.00"/>
	<line x1="272.00" y1="396.77" x2="274.00" y2="396.35" stroke="rgb(250,216,89)" stroke-width="6.00"/>
	<line x1="274.00" y1="83.65" x2="276.00" y2="84.10" stroke="rgb(250,216,89)" stroke-width="6.00"/>
	<line x1="274.00" y1="396.35" x2="276.00" y2="395.90" stroke="rgb(250,216,89)" stroke-width="6.00"/>
	<line x1="276.00" y1="84.10" x2="278.00" y2="84.58" stroke="rgb(250,216,89)" stroke-width="6.00"/>
	<line x1="276.00" y1="395.90" x2="278.00" y2="395.42" stroke="rgb(250,216,89)" stroke-width="6.00"/>
	<line x1="278.00" y1="84.58" x2="280.00" y2="85.08" stroke="rgb(250,216,89)" stroke-width="6.00"/>
	<line x1="278.00" y1="395.42" x2="280.00" y2="394.92" stroke="rgb(250,216,89)" stroke-width="6.00"/>
	<line x1="280.00" y1="85.08" x2="282.00" y2="85.61" stroke="rgb(250,216,89)" stroke-width="6.00"/>
	<line x1="280.00" y1="394.92" x2="282.00" y2="394.39" stroke="rgb(250,216,89)" stroke-width="6.00"/>
	<line x1="282.00" y1="85.61" x2="284.00" y2="86.17" stroke="rgb(250,216,89)" stroke-width="6.00"/>
	<line x1="282.00" y1="394.39" x2="284.00" y2="393.83" stroke="rgb(250,216,89)" stroke-width="6.00"/>
	<line x1="284.00" y1="86.17" x2="286.00" y2="86.76" stroke="rgb(250,216,89)" stroke-width="6.00"/>
	<line x1="284.00" y1="393.83" x2="286.00" y2="393.24" stroke="rgb(250,216,89)" stroke-width="6.00"/>
	<line x1="286.00" y1="86.76" x2="288.00" y2="87.37" stroke="rgb(250,216,89)" stroke-width="6.00"/>
	<line x1="286.00" y1="393.24" x2="288.00" y2="392.63" stroke="rgb(250,216,89)" stroke-width="6.00"/>
	<line x1="288.00" y1="87.37" x2="290.00" y2="88.01" stroke="rgb(250,216,89)" stroke-width="6.00"/>
	<line x1="288.00" y1="392.63" x2="290.00" y2="391.99" stroke="rgb(250,216,89)" stroke-width="6.00"/>
	<line x1="290.00" y1="88.01" x2="292.00" y2="88.69" stroke="rgb(250,216,89)" stroke-width="6.00"/>
	<line x1="290.00" y1="391.99" x2="292.00" y2="391.31" stroke="rgb(250,216,89)" stroke-width="6.00"/>
	<line x1="292.00" y1="88.69" x2="294.00" y2="89.39" stroke="rgb(250,216,89)" stroke-width="6.00"/>
	<line x1="292.00" y1="391.31" x2="294.00" y2="390.61" stroke="rgb(250,216,89)" stroke-width="6.00"/>
	<line x1="294.00" y1="89.39" x2="296.00" y2="90.12" stroke="rgb(250,216,89)" stroke-width="6.00"/>
	<line x1="294.00" y1="390.61" x2="296.00" y2="389.88" stroke="rgb(250,216,89)" stroke-width="6.00"/>
	<line x1="296.00" y1="90.12" x2="298.00" y2="90.88" stroke="rgb(250,216,89)" stroke-width="6.00"/>
	<line x1="296.00" y1="389.88" x2="298.00" y2="389.12" stroke="rgb(250,216,89)" stroke-width="6.00"/>
	<line x1="298.00" y1="90.88" x2="300.00" y2="91.68" stroke="rgb(250,216,89)" stroke-width="6.00"/>
	<line x1="298.00" y1="389.12" x2="300.00" y2="388.32" stroke="rgb(250,216,89)" stroke-width="6.00"/>
	<line x1="300.00" y1="91.68" x2="302.00" y2="92.50" stroke="rgb(250,216,89)" stroke-width="6.00"/>
	<line x1="300.00" y1="388.32" x2="302.00" y2="387.50" stroke="rgb(250,216,89)" stroke-width="6.00"/>
	<line x1="302.00" y1="92.50" x2="304.00" y2="93.36" stroke="rgb(250,216,89)" stroke-width="6.00"/>
	<line x1="302.00" y1="387.50" x2="304.00" y2="386.64" stroke="rgb(250,216,89)" stroke-width="6.00"/>
	<line x1="304.00" y1="93.36" x2="306.00" y2="94.25" stroke="rgb(250,216,89)" stroke-width="6.00"/>
	<line x1="304.00" y1="386.64" x2="306.00" y2="385.75" stroke="rgb(250,216,89)" stroke-width="6.00"/>
	<line x1="306.00" y1="94.25" x2="308.00" y2="95.17" stroke="rgb(250,216,89)" stroke-width="6.00"/>
	<line x1="306.00" y1="385.75" x2="308.00" y2="384.83" stroke="rgb(250,216,89)" stroke-width="6.00"/>
	<line x1="308.00" y1="95.17" x2="310.00" y2="96.13" stroke="rgb(250,216,89)" stroke-width="6.00"/>
	<line x1="308.00" y1="384.83" x2="310.00" y2="383.87" stroke="rgb(250,216,89)" stroke-width="6.00"/>
	<line x1="310.00" y1="96.13" x2="312.00" y2="97.12" stroke="rgb(250,216,89)" stroke-width="6.00"/>
	<line x1="310.00" y1="383.87" x2="312.00" y2="382.88" stroke="rgb(250,216,89)" stroke-width="6.00"/>
	<line x1="312.00" y1="97.12" x2="314.00" y2="98.14" stroke="rgb(250,216,89)" stroke-width="6.00"/>
	<line x1="312.00" y1="382.88" x2="314.00" y2="381.86" stroke="rgb(250,216,89)" stroke-width="6.00"/>
	<line x1="314.00" y1="98.14" x2="316.00" y2="99.20" stroke="rgb(250,216,89)" stroke-width="6.00"/>
	<line x1="314.00" y1="381.86" x2="316.00" y2="380.80" stroke="rgb(250,216,89)" stroke-width="6.00"/>
	<line x1="316.00" y1="99.20" x2="318.00" y2="100.30" stroke="rgb(250,216,89)" stroke-width="6.00"/>
	<line x1="316.00" y1="380.80" x2="318.00" y2="379.70" stroke="rgb(250,216,89)" stroke-width="6.00"/>
	<line x1="318.00" y1="100.30" x2="320.00" y2="101.44" stroke="rgb(250,216,89)" stroke-width="6.00"/>
	<line x1="318.00" y1="379.70" x2="320.00" y2="378.56" stroke="rgb(250,216,89)" stroke-width="6.00"/>
	<line x1="320.00" y1="101.44" x2="322.00" y2="102.61" stroke="rgb(250,216,89)" stroke-width="6.00"/>
	<line x1="320.00" y1="378.56" x2="322.00" y2="377.39" stroke="rgb(250,216,89)" stroke-width="6.00"/>
	<line x1="322.00" y1="102.61" x2="324.00" y2="103.82" stroke="rgb(250,216,89)" stroke-width="6.00"/>
	<line x1="322.00" y1="377.39" x2="324.00" y2="376.18" stroke="rgb(250,216,89)" stroke-width="6.00"/>
	<line x1="324.00" y1="103.82" x2="326.00" y2="105.08" stroke="rgb(250,216,89)" stroke-width="6.00"/>
	<line x1="324.00" y1="376.18" x2="326.00" y2="374.92" stroke="rgb(250,216,89)" stroke-width="6.00"/>
	<line x1="326.00" y1="105.08" x2="328.00" y2="106.37" stroke="rgb(250,216,89)" stroke-width="6.00"/>
	<line x1="326.00" y1="374.92" x2="328.00" y2="373.63" stroke="rgb(250,216,89)" stroke-width="6.00"/>
	<line x1="328.00" y1="106.37" x2="330.00" y2="107.71" stroke="rgb(250,216,89)" stroke-width="6.00"/>
	<line x1="328.00" y1="373.63" x2="330.00" y2="372.29" stroke="rgb(250,216,89)" stroke-width="6.00"/>
	<line x1="330.00" y1="107.71" x2="332.00" y2="109.10" stroke="rgb(250,216,89)" stroke-width="6.00"/>
	<line x1="330.00" y1="372.29" x2="332.00" y2="370.90" stroke="rgb(250,216,89)" stroke-width="6.00"/>
	<line x1="332.00" y1="109.10" x2="334.00" y2="110.52" stroke="rgb(250,216,89)" stroke-width="6.00"/>
	<line x1="332.00" y1="370.90" x2="334.00" y2="369.48" stroke="rgb(250,216,89)" stroke-width="6.00"/>
	<line x1="334.00" y1="110.52" x2="336.00" y2="112.00" stroke="rgb(250,216,89)" stroke-width="6.00"/>
	<line x1="334.00" y1="369.48" x2="336.00" y2="368.00" stroke="rgb(250,216,89)" stroke-width="6.00"/>
	<line x1="336.00" y1="112.00" x2="338.00" y2="113.52" stroke="rgb(250,216,89)" stroke-width="6.00"/>
	<line x1="336.00" y1="368.00" x2="338.00" y2="366.48" stroke="rgb(250,216,89)" stroke-width="6.00"/>
	<line x1="338.00" y1="113.52" x2="340.00" y2="115.10" stroke="rgb(250,216,89)" stroke-width="6.00"/>
	<line x1="338.00" y1="366.48" x2="340.00" y2="364.90" stroke="rgb(250,216,89)" stroke-width="6.00"/>
	<line x1="340.00" y1="115.10" x2="342.00" y2="116.73" stroke="rgb(250,216,89)" stroke-width="6.00"/>
	<line x1="340.00" y1="364.90" x2="342.00" y2="363.27" stroke="rgb(250,216,89)" stroke-width="6.00"/>
	<line x1="342.00" y1="116.73" x2="344.00" y2="118.41" stroke="rgb(250,216,89)" stroke-width="6.00"/>
	<line x1="342.00" y1="363.27" x2="344.00" y2="361.59" stroke="rgb(250,216,89)" stroke-width="6.00"/>
	<line x1="344.00" y1="118.41" x2="346.00" y2="120.15" stroke="rgb(250,216,89)" stroke-width="6.00"/>
	<line x1="344.00" y1="361.59" x2="346.00" y2="359.85" stroke="rgb(250,216,89)" stroke-width="6.00"/>
	<line x1="346.00" y1="120.15" x2="348.00" y2="121.95" stroke="rgb(250,216,89)" stroke-width="6.00"/>
	<line x1="346.00" y1="359.85" x2="348.00" y2="358.05" stroke="rgb(250,216,89)" stroke-width="6.00"/>
	<line x1="348.00" y1="121.95" x2="350.00" y2="123.81" stroke="rgb(250,216,89)" stroke-width="6.00"/>
	<line x1="348.00" y1="358.05" x2="350.00" y2="356.19" stroke="rgb(250,216,89)" stroke-width="6.00"/>
	<line x1="350.00" y1="123.81" x2="352.00" y2="125.74" stroke="rgb(250,216,89)" stroke-width="6.00"/>
	<line x1="350.00" y1="356.19" x2="352.00" y2="354.26" stroke="rgb(250,216,89)" stroke-width="6.00"/>
	<line x1="352.00" y1="125.74" x2="354.00" y2="127.73" stroke="rgb(250,216,89)" stroke-width="6.00"/>
	<line x1="352.00" y1="354.26" x2="354.00" y2="352.27" stroke="rgb(250,216,89)" stroke-width="6.00"/>
	<line x1="354.00" y1="127.73" x2="356.00" y2="129.80" stroke="rgb(250,216,89)" stroke-width="6.00"/>
	<line x1="354.00" y1="352.27" x2="356.00" y2="350.20" stroke="rgb(250,216,89)" stroke-width="6.00"/>
	<line x1="356.00" y1="129.80" x2="358.00" y2="131.94" stroke="rgb(250,216,89)" stroke-width="6.00"/>
	<line x1="356.00" y1="350.20" x2="358.00" y2="348.06" stroke="rgb(250,216,89)" stroke-width="6.00"/>
	<line x1="358.00" y1="131.94" x2="360.00" y2="134.17" stroke="rgb(250,216,89)" stroke-width="6.00"/>
	<line x1="358.00" y1="348.06" x2="360.00" y2="345.83" stroke="rgb(250,216,89)" stroke-width="6.00"/>
	<line x1="360.00" y1="134.17" x2="362.00" y2="136.48" stroke="rgb(250,216,89)" stroke-width="6.00"/>
	<line x1="360.00" y1="345.83" x2="362.00" y2="343.52" stroke="rgb(250,216,89)" stroke-width="6.00"/>
	<line x1="362.00" y1="136.48" x2="364.00" y2="138.89" stroke="rgb(250,216,89)" stroke-width="6.00"/>
	<line x1="362.00" y1="343.52" x2="364.00" y2="341.11" stroke="rgb(250,216,89)" stroke-width="6.00"/>
	<line x1="364.00" y1="138.89" x2="366.00" y2="141.39" stroke="rgb(250,216,89)" stroke-width="6.00"/>
	<line x1="364.00" y1="341.11" x2="366.00" y2="338.61" stroke="rgb(250,216,89)" stroke-width="6.00"/>
	<line x1="366.00" y1="141.39" x2="368.00" y2="144.00" stroke="rgb(250,216,89)" stroke-width="6.00"/>
	<line x1="366.00" y1="338.61" x2="368.00" y2="336.00" stroke="rgb(250,216,89)" stroke-width="6.00"/>
	<line x1="368.00" y1="144.00" x2="370.00" y2="146.73" stroke="rgb(250,216,89)" stroke-width="6.00"/>
	<line x1="368.00" y1="336.00" x2="370.00" y2="333.27" stroke="rgb(250,216,89)" stroke-width="6.00"/>
	<line x1="370.00" y1="146.73" x2="372.00" y2="149.58" stroke="rgb(250,216,89)" stroke-width="6.00"/>
	<line x1="370.00" y1="333.27" x2="372.00" y2="330.42" stroke="rgb(250,216,89)" stroke-width="6.00"/>
	<line x1="372.00" y1="149.58" x2="374.00" y2="152.57" stroke="rgb(250,216,89)" stroke-width="6.00"/>
	<line x1="372.00" y1="330.42" x2="374.00" y2="327.43" stroke="rgb(250,216,89)" stroke-width="6.00"/>
	<line x1="374.00" y1="152.57" x2="376.00" y2="155.71" stroke="rgb(250,216,89)" stroke-width="6.00"/>
	<line x1="374.00" y1="327.43" x2="376.00" y2="324.29" stroke="rgb(250,216,89)" stroke-width="6.00"/>
	<line x1="376.00" y1="155.71" x2="378.00" y2="159.03" stroke="rgb(250,216,89)" stroke-width="6.00"/>
	<line x1="376.00" y1="324.29" x2="378.00" y2="320.97" stroke="rgb(250,216,89)" stroke-width="6.00"/>
	<line x1="378.00" y1="159.03" x2="380.00" y2="162.54" stroke="rgb(250,216,89)" stroke-width="6.00"/>
	<line x1="378.00" y1="320.97" x2="380.00" y2="317.46" stroke="rgb(250,216,89)" stroke-width="6.00"/>
	<line x1="380.00" y1="162.54" x2="382.00" y2="166.27" stroke="rgb(250,216,89)" stroke-width="6.00"/>
	<line x1="380.00" y1="317.46" x2="382.00" y2="313.73" stroke="rgb(250,216,89)" stroke-width="6.00"/>
	<line x1="382.00" y1="166.27" x2="384.00" y2="170.26" stroke="rgb(250,216,89)" stroke-width="6.00"/>
	<line x1="382.00" y1="313.73" x2="384.00" y2="309.74" stroke="rgb(250,216,89)" stroke-width="6.00"/>
	<line x1="384.00" y1="170.26" x2="386.00" y2="174.55" stroke="rgb(250,216,89)" stroke-width="6.00"/>
	<line x1="384.00" y1="309.74" x2="386.00" y2="305.45" stroke="rgb(250,216,89)" stroke-width="6.00"/>
	<line x1="386.00" y1="174.55" x2="388.00" y2="179.21" stroke="rgb(250,216,89)" stroke-width="6.00"/>
	<line x1="386.00" y1="305.45" x2="388.00" y2="300.79" stroke="rgb(250,216,89)" stroke-width="6.00"/>
	<line x1="388.00" y1="179.21" x2="390.00" y2="184.32" stroke="rgb(250,216,89)" stroke-width="6.00"/>
	<line x1="388.00" y1="300.79" x2="390.00" y2="295.68" stroke="rgb(250,216,89)" stroke-width="6.00"/>
	<line x1="390.00" y1="184.32" x2="392.00" y2="190.04" stroke="rgb(250,216,89)" stroke-width="6.00"/>
	<line x1="390.00" y1="295.68" x2="392.00" y2="289.96" stroke="rgb(250,216,89)" stroke-width="6.00"/>
	<line x1="392.00" y1="190.04" x2="394.00" y2="196.59" stroke="rgb(250,216,89)" stroke-width="6.00"/>
	<line x1="392.00" y1="289.96" x2="394.00" y2="283.41" stroke="rgb(250,216,89)" stroke-width="6.00"/>
	<line x1="394.00" y1="196.59" x2="396.00" y2="204.45" stroke="rgb(250,216,89)" stroke-width="6.00"/>
	<line x1="394.00" y1="283.41" x2="396.00" y2="275.55" stroke="rgb(250,216,89)" stroke-width="6.00"/>
	<line x1="396.00" y1="204.45" x2="398.00" y2="214.78" stroke="rgb(250,216,89)" stroke-width="6.00"/>
	<line x1="396.00" y1="275.55" x2="398.00" y2="265.22" stroke="rgb(250,216,89)" stroke-width="6.00"/>
	<line x1="398.00" y1="214.78" x2="400.00" y2="240.00" stroke="rgb(250,216,89)" stroke-width="6.00"/>
	<line x1="398.00" y1="265.22" x2="400.00" y2="240.00" stroke="rgb(250,216,89)" stroke-width="6.00"/>
	<line x1="240.00" y1="80.00" x2="238.00" y2="80.01" stroke="rgb(250,216,89)" stroke-width="6.00"/>
	<line x1="240.00" y1="400.00" x2="238.00" y2="399.99" stroke="rgb(250,216,89)" stroke-width="6.00"/>
	<line x1="238.00" y1="80.01" x2="236.00" y2="80.05" stroke="rgb(250,216,89)" stroke-width="6.00"/>
	<line x1="238.00" y1="399.99" x2="236.00" y2="399.95" stroke="rgb(250,216,89)" stroke-width="6.00"/>
	<line x1="236.00" y1="80.05" x2="234.00" y2="80.11" stroke="rgb(250,216,89)" stroke-width="6.00"/>
	<line x1="236.00" y1="399.95" x2="234.00" y2="399.89" stroke="rgb(250,216,89)" stroke-width="6.00"/>
	<line x1="234.00" y1="80.11" x2="232.00" y2="80.20" stroke="rgb(250,216,89)" stroke-width="6.00"/>
	<line x1="234.00" y1="399.89" x2="232.00" y2="399.80" stroke="rgb(250,216,89)" stroke-width="6.00"/>
	<line x1="232.00" y1="80.20" x2="230.00" y2="80.31" stroke="rgb(250,216,89)" stroke-width="6.00"/>
	<line x1="232.00" y1="399.80" x2="230.00" y2="399.69" stroke="rgb(250,216,89)" stroke-width="6.00"/>
	<line x1="230.00" y1="80.31" x2="228.00" y2="80.45" stroke="rgb(250,216,89)" stroke-width="6.00"/>
	<line x1="230.00" y1="399.69" x2="228.00" y2="399.55" stroke="rgb(250,216,89)" stroke-width="6.00"/>
	<line x1="228.00" y1="80.45" x2="226.00" y2="80.61" stroke="rgb(250,216,89)" stroke-width="6.00"/>
	<line x1="228.00" y1="399.55" x2="226.00" y2="399.39" stroke="rgb(250,216,89)" stroke-width="6.00"/>
	<line x1="226.00" y1="80.61" x2="224.00" y2="80.80" stroke="rgb(250,216,89)" stroke-width="6.00"/>
	<line x1="226.00" y1="399.39" x2="224.00" y2="399.20" stroke="rgb(250,216,89)" stroke-width="6.00"/>
	<line x1="224.00" y1="80.80" x2="222.00" y2="81.02" stroke="rgb(250,216,89)" stroke-width="6.00"/>
	<line x1="224.00" y1="399.20" x2="222.00" y2="398.98" stroke="rgb(250,216,89)" stroke-width="6.00"/>
	<line x1="222.00" y1="81.02" x2="220.00" y2="81.25" stroke="rgb(250,216,89)" stroke-width="6.00"/>
	<line x1="222.00" y1="398.98" x2="220.00" y2="398.75" stroke="rgb(250,216,89)" stroke-width="6.00"/>
	<line x1="220.00" y1="81.25" x2="218.00" y2="81.52" stroke="rgb(250,216,89)" stroke-width="6.00"/>
	<line x1="220.00" y1="398.75" x2="218.00" y2="398.48" stroke="rgb(250,216,89)" stroke-width="6.00"/>
	<line x1="218.00" y1="81.52" x2="216.00" y2="81.81" stroke="rgb(250,216,89)" stroke-width="6.00"/>
	<line x1="218.00" y1="398.48" x2="216.00" y2="398.19" stroke="rgb(250,216,89)" stroke-width="6.00"/>
	<line x1="216.00" y1="81.81" x2="214.00" y2="82.13" stroke="rgb(250,216,89)" stroke-width="6.00"/>
	<line x1="216.00" y1="398.19" x2="214.00" y2="397.87" stroke="rgb(250,216,89)" stroke-width="6.00"/>
	<line x1="214.00" y1="82.13" x2="212.00" y2="82.47" stroke="rgb(250,216,89)" stroke-width="6.00"/>
	<line x1="214.00" y1="397.87" x2="212.00" y2="397.53" stroke="rgb(250,216,89)" stroke-width="6.00"/>
	<line x1="212.00" y1="82.47" x2="210.00" y2="82.84" stroke="rgb(250,216,89)" stroke-width="6.00"/>
	<line x1="212.00" y1="397.53" x2="210.00" y2="397.16" stroke="rgb(250,216,89)" stroke-width="6.00"/>
	<line x1="210.00" y1="82.84" x2="208.00" y2="83.23" stroke="rgb(250,216,89)" stroke-width="6.00"/>
	<line x1="210.00" y1="397.16" x2="208.00" y2="396.77" stroke="rgb(250,216,89)" stroke-width="6.00"/>
	<line x1="208.00" y1="83.23" x2="206.00" y2="83.65" stroke="rgb(250,216,89)" stroke-width="6.00"/>
	<line x1="208.00" y1="396.77" x2="206.00" y2="396.35" stroke="rgb(250,216,89)" stroke-width="6.00"/>
	<line x1="206.00" y1="83.65" x2="204.00" y2="84.10" stroke="rgb(250,216,89)" stroke-width="6.00"/>
	<line x1="206.00" y1="396.35" x2="204.00" y2="395.90" stroke="rgb(250,216,89)" stroke-width="6.00"/>
	<line x1="204.00" y1="84.10" x2="202.00" y2="84.58" stroke="rgb(250,216,89)" stroke-width="6.00"/>
	<line x1="204.00" y1="395.90" x2="202.00" y2="395.42" stroke="rgb(250,216,89)" stroke-width="6.00"/>
	<line x1="202.00" y1="84.58" x2="200.00" y2="85.08" stroke="rgb(250,216,89)" stroke-width="6.00"/>
	<line x1="202.00" y1="395.42" x2="200.00" y2="394.92" stroke="rgb(250,216,89)" stroke-width="6.00"/>
	<line x1="200.00" y1="85.08" x2="198.00" y2="85.61" stroke="rgb(250,216,89)" stroke-width="6.00"/>
	<line x1="200.00" y1="394.92" x2="198.00" y2="394.39" stroke="rgb(250,216,89)" stroke-width="6.00"/>
	<line x1="198.00" y1="85.61" x2="196.00" y2="86.17" stroke="rgb(250,216,89)" stroke-width="6.00"/>
	<line x1="198.00" y1="394.39" x2="196.00" y2="393.83" stroke="rgb(250,216,89)" stroke-width="6.00"/>
	<line x1="196.00" y1="86.17" x2="194.00" y2="86.76" stroke="rgb(250,216,89)" stroke-width="6.00"/>
	<line x1="196.00" y1="393.83" x2="194.00" y2="393.24" stroke="rgb(250,216,89)" stroke-width="6.00"/>
	<line x1="194.00" y1="86.76" x2="192.00" y2="87.37" stroke="rgb(250,216,89)" stroke-width="6.00"/>
	<line x1="194.00" y1="393.24" x2="192.00" y2="392.63" stroke="rgb(250,216,89)" stroke-width="6.00"/>
	<line x1="192.00" y1="87.37" x2="190.00" y2="88.01" stroke="rgb(250,216,89)" stroke-width="6.00"/>
	<line x1="192.00" y1="392.63" x2="190.00" y2="391.99" stroke="rgb(250,216,89)" stroke-width="6.00"/>
	<line x1="190.00" y1="88.01" x2="188.00" y2="88.69" stroke="rgb(250,216,89)" stroke-width="6.00"/>
	<line x1="190.00" y1="391.99" x2="188.00" y2="391.31" stroke="rgb(250,216,89)" stroke-width="6.00"/>
	<line x1="188.00" y1="88.69" x2="186.00" y2="89.39" stroke="rgb(250,216,89)" stroke-width="6.00"/>
	<line x1="188.00" y1="391.31" x2="186.00" y2="390.61" stroke="rgb(250,216,89)" stroke-width="6.00"/>
	<line x1="186.00" y1="89.39" x2="184.00" y2="90.12" stroke="rgb(250,216,89)" stroke-width="6.00"/>
	<line x1="186.00" y1="390.61" x2="184.00" y2="389.88" stroke="rgb(250,216,89)" stroke-width="6.00"/>
	<line x1="184.00" y1="90.12" x2="182.00" y2="90.88" stroke="rgb(250,216,89)" stroke-width="6.00"/>
	<line x1="184.00" y1="389.88" x2="182.00" y2="389.12" stroke="rgb(250,216,89)" stroke-width="6.00"/>
	<line x1="182.00" y1="90.88" x2="180.00" y2="91.68" stroke="rgb(250,216,89)" stroke-width="6.00"/>
	<line x1="182.00" y1="389.12" x2="180.00" y2="388.32" stroke="rgb(250,216,89)" stroke-width="6.00"/>
	<line x1="180.00" y1="91.68" x2="178.00" y2="92.50" stroke="rgb(250,216,89)" stroke-width="6.00"/>
	<line x1="180.00" y1="388.32" x2="178.00" y2="387.50" stroke="rgb(250,216,89)" stroke-width="6.00"/>
	<line x1="178.00" y1="92.50" x2="176.00" y2="93.36" stroke="rgb(250,216,89)" stroke-width="6.00"/>
	<line x1="178.00" y1="387.50" x2="176.00" y2="386.64" stroke="rgb(250,216,89)" stroke-width="6.00"/>
	<line x1="176.00" y1="93.36" x2="174.00" y2="94.25" stroke="rgb(250,216,89)" stroke-width="6.00"/>
	<line x1="176.00" y1="386.64" x2="174.00" y2="385.75" stroke="rgb(250,216,89)" stroke-width="6.00"/>
	<line x1="174.00" y1="94.25" x2="172.00" y2="95.17" stroke="rgb(250,216,89)" stroke-width="6.00"/>
	<line x1="174.00" y1="385.75" x2="172.00" y2="384.83" stroke="rgb(250,216,89)" stroke-width="6.00"/>
	<line x1="172.00" y1="95.17" x2="170.00" y2="96.13" stroke="rgb(250,216,89)" stroke-width="6.00"/>
	<line x1="172.00" y1="384.83" x2="170.00" y2="383.87" stroke="rgb(250,216,89)" stroke-width="6.00"/>
	<line x1="170.00" y1="96.13" x2="168.00" y2="97.12" stroke="rgb(250,216,89)" stroke-width="6.00"/>
	<line x1="170.00" y1="383.87" x2="168.00" y2="382.88" stroke="rgb(250,216,89)" stroke-width="6.00"/>
	<line x1="168.00" y1="97.12" x2="166.00" y2="98.14" stroke="rgb(250,216,89)" stroke-width="6.00"/>
	<line x1="168.00" y1="382.88" x2="166.00" y2="381.86" stroke="rgb(250,216,89)" stroke-width="6.00"/>
	<line x1="166.00" y1="98.14" x2="164.00" y2="99.20" stroke="rgb(250,216,89)" stroke-width="6.00"/>
	<line x1="166.00" y1="381.86" x2="164.00" y2="380.80" stroke="rgb(250,216,89)" stroke-width="6.00"/>
	<line x1="164.00" y1="99.20" x2="162.00" y2="100.30" stroke="rgb(250,216,89)" stroke-width="6.00"/>
	<line x1="164.00" y1="380.80" x2="162.00" y2="379.70" stroke="rgb(250,216,89)" stroke-width="6.00"/>
	<line x1="162.00" y1="100.30" x2="160.00" y2="101.44" stroke="rgb(250,216,89)" stroke-width="6.00"/>
	<line x1="162.00" y1="379.70" x2="160.00" y2="378.56" stroke="rgb(250,216,89)" stroke-width="6.00"/>
	<line x1="160.00" y1="101.44" x2="158.00" y2="102.61" stroke="rgb(250,216,89)" stroke-width="6.00"/>
	<line x1="160.00" y1="378.56" x2="158.00" y2="377.39" stroke="rgb(250,216,89)" stroke-width="6.00"/>
	<line x1="158.00" y1="102.61" x2="156.00" y2="103.82" stroke="rgb(250,216,89)" stroke-width="6.00"/>
	<line x1="158.00" y1="377.39" x2="156.00" y2="376.18" stroke="rgb(250,216,89)" stroke-width="6.00"/>
	<line x1="156.00" y1="103.82" x2="154.00" y2="105.08" stroke="rgb(250,216,89)" stroke-width="6.00"/>
	<line x1="156.00" y1="376.18" x2="154.00" y2="374.92" stroke="rgb(250,216,89)" stroke-width="6.00"/>
	<line x1="154.00" y1="105.08" x2="152.00" y2="106.37" stroke="rgb(250,216,89)" stroke-width="6.00"/>
	<line x1="154.00" y1="374.92" x2="152.00" y2="373.63" stroke="rgb(250,216,89)" stroke-width="6.00"/>
	<line x1="152.00" y1="106.37" x2="150.00" y2="107.71" stroke="rgb(250,216,89)" stroke-width="6.00"/>
	<line x1="152.00" y1="373.63" x2="150.00" y2="372.29" stroke="rgb(250,216,89)" stroke-width="6.00"/>
	<line x1="150.00" y1="107.71" x2="148.00" y2="109.10" stroke="rgb(250,216,89)" stroke-width="6.00"/>
	<line x1="150.00" y1="372.29" x2="148.00" y2="370.90" stroke="rgb(250,216,89)" stroke-width="6.00"/>
	<line x1="148.00" y1="109.10" x2="146.00" y2="110.52" stroke="rgb(250,216,89)" stroke-width="6.00"/>
	<line x1="148.00" y1="370.90" x2="146.00" y2="369.48" stroke="rgb(250,216,89)" stroke-width="6.00"/>
	<line x1="146.00" y1="110.52" x2="144.00" y2="112.00" stroke="rgb(250,216,89)" stroke-width="6.00"/>
	<line x1="146.00" y1="369.48" x2="144.00" y2="368.00" stroke="rgb(250,216,89)" stroke-width="6.00"/>
	<line x1="144.00" y1="112.00" x2="142.00" y2="113.52" stroke="rgb(250,216,89)" stroke-width="6.00"/>
	<line x1="144.00" y1="368.00" x2="142.00" y2="366.48" stroke="rgb(250,216,89)" stroke-width="6.00"/>
	<line x1="142.00" y1="113.52" x2="140.00" y2="115.10" stroke="rgb(250,216,89)" stroke-width="6.00"/>
	<line x1="142.00" y1="366.48" x2="140.00" y2="364.90" stroke="rgb(250,216,89)" stroke-width="6.00"/>
	<line x1="140.00" y1="115.10" x2="138.00" y2="116.73" stroke="rgb(250,216,89)" stroke-width="6.00"/>
	<line x1="140.00" y1="364.90" x2="138.00" y2="363.27" stroke="rgb(250,216,89)" stroke-width="6.00"/>
	<line x1="138.00" y1="116.73" x2="136.00" y2="118.41" stroke="rgb(250,216,89)" stroke-width="6.00"/>
	<line x1="138.00" y1="363.27" x2="136.00" y2="361.59" stroke="rgb(250,216,89)" stroke-width="6.00"/>
	<line x1="136.00" y1="118.41" x2="134.00" y2="120.15" stroke="rgb(250,216,89)" stroke-width="6.00"/>
	<line x1="136.00" y1="361.59" x2="134.00" y2="359.85" stroke="rgb(250,216,89)" stroke-width="6.00"/>
	<line x1="134.00" y1="120.15" x2="132.00" y2="121.95" stroke="rgb(250,216,89)" stroke-width="6.00"/>
	<line x1="134.00" y1="359.85" x2="132.00" y2="358.05" stroke="rgb(250,216,89)" stroke-width="6.00"/>
	<line x1="132.00" y1="121.95" x2="130.00" y2="123.81" stroke="rgb(250,216,89)" stroke-width="6.00"/>
	<line x1="132.00" y1="358.05" x2="130.00" y2="356.19" stroke="rgb(250,216,89)" stroke-width="6.00"/>
	<line x1="130.00" y1="123.81" x2="128.00" y2="125.74" stroke="rgb(250,216,89)" stroke-width="6.00"/>
	<line x1="130.00" y1="356.19" x2="128.00" y2="354.26" stroke="rgb(250,216,89)" stroke-width="6.00"/>
	<line x1="128.00" y1="125.74" x2="126.00" y2="127.73" stroke="rgb(250,216,89)" stroke-width="6.00"/>
	<line x1="128.00" y1="354.26" x2="126.00" y2="352.27" stroke="rgb(250,216,89)" stroke-width="6.00"/>
	<line x1="126.00" y1="127.73" x2="124.00" y2="129.80" stroke="rgb(250,216,89)" stroke-width="6.00"/>
	<line x1="126.00" y1="352.27" x2="124.00" y2="350.20" stroke="rgb(250,216,89)" stroke-width="6.00"/>
	<line x1="124.00" y1="129.80" x2="122.00" y2="131.94" stroke="rgb(250,216,89)" stroke-width="6.00"/>
	<line x1="124.00" y1="350.20" x2="122.00" y2="348.06" stroke="rgb(250,216,89)" stroke-width="6.00"/>
	<line x1="122.00" y1="131.94" x2="120.00" y2="134.17" stroke="rgb(250,216,89)" stroke-width="6.00"/>
	<line x1="122.00" y1="348.06" x2="120.00" y2="345.83" stroke="rgb(250,216,89)" stroke-width="6.00"/>
	<line x1="120.00" y1="134.17" x2="118.00" y2="136.48" stroke="rgb(250,216,89)" stroke-width="6.00"/>
	<line x1="120.00" y1="345.83" x2="118.00" y2="343.52" stroke="rgb(250,216,89)" stroke-width="6.00"/>
	<line x1="118.00" y1="136.48" x2="116.00" y2="138.89" stroke="rgb(250,216,89)" stroke-width="6.00"/>
	<line x1="118.00" y1="343.52" x2="116.00" y2="341.11" stroke="rgb(250,216,89)" stroke-width="6.00"/>
	<line x1="116.00" y1="138.89" x2="114.00" y2="141.39" stroke="rgb(250,216,89)" stroke-width="6.00"/>
	<line x1="116.00" y1="341.11" x2="114.00" y2="338.61" stroke="rgb(250,216,89)" stroke-width="6.00"/>
	<line x1="114.00" y1="141.39" x2="112.00" y2="144.00" stroke="rgb(250,216,89)" stroke-width="6.00"/>
	<line x1="114.00" y1="338.61" x2="112.00" y2="336.00" stroke="rgb(250,216,89)" stroke-width="6.00"/>
	<line x1="112.00" y1="144.00" x2="110.00" y2="146.73" stroke="rgb(250,216,89)" stroke-width="6.00"/>
	<line x1="112.00" y1="336.00" x2="110.00" y2="333.27" stroke="rgb(250,216,89)" stroke-width="6.00"/>
	<line x1="110.00" y1="146.73" x2="108.00" y2="149.58" stroke="rgb(250,216,89)" stroke-width="6.00"/>
	<line x1="110.00" y1="333.27" x2="108.00" y2="330.42" stroke="rgb(250,216,89)" stroke-width="6.00"/>
	<line x1="108.00" y1="149.58" x2="106.00" y2="152.57" stroke="rgb(250,216,89)" stroke-width="6.00"/>
	<line x1="108.00" y1="330.42" x2="106.00" y2="327.43" stroke="rgb(250,216,89)" stroke-width="6.00"/>
	<line x1="106.00" y1="152.57" x2="104.00" y2="155.71" stroke="rgb(250,216,89)" stroke-width="6.00"/>
	<line x1="106.00" y1="327.43" x2="104.00" y2="324.29" stroke="rgb(250,216,89)" stroke-width="6.00"/>
	<line x1="104.00" y1="155.71" x2="102.00" y2="159.03" stroke="rgb(250,216,89)" stroke-width="6.00"/>
	<line x1="104.00" y1="324.29" x2="102.00" y2="320.97" stroke="rgb(250,216,89)" stroke-width="6.00"/>
	<line x1="102.00" y1="159.03" x2="100.00" y2="162.54" stroke="rgb(250,216,89)" stroke-width="6.00"/>
	<line x1="102.00" y1="320.97" x2="100.00" y2="317.46" stroke="rgb(250,216,89)" stroke-width="6.00"/>
	<line x1="100.00" y1="162.54" x2="98.00" y2="166.27" stroke="rgb(250,216,89)" stroke-width="6.00"/>
	<line x1="100.00" y1="317.46" x2="98.00" y2="313.73" stroke="rgb(250,216,89)" stroke-width="6.00"/>
	<line x1="98.00" y1="166.27" x2="96.00" y2="170.26" stroke="rgb(250,216,89)" stroke-width="6.00"/>
	<line x1="98.00" y1="313.73" x2="96.00" y2="309.74" stroke="rgb(250,216,89)" stroke-width="6.00"/>
	<line x1="96.00" y1="170.26" x2="94.00" y2="174.55" stroke="rgb(250,216,89)" stroke-width="6.00"/>
	<line x1="96.00" y1="309.74" x2="94.00" y2="305.45" stroke="rgb(250,216,89)" stroke-width="6.00"/>
	<line x1="94.00" y1="174.55" x2="92.00" y2="179.21" stroke="rgb(250,216,89)" stroke-width="6.00"/>
	<line x1="94.00" y1="305.45" x2="92.00" y2="300.79" stroke="rgb(250,216,89)" stroke-width="6.00"/>
	<line x1="92.00" y1="179.21" x2="90.00" y2="184.32" stroke="rgb(250,216,89)" stroke-width="6.00"/>
	<line x1="92.00" y1="300.79" x2="90.00" y2="295.68" stroke="rgb(250,216,89)" stroke-width="6.00"/>
	<line x1="90.00" y1="184.32" x2="88.00" y2="190.04" stroke="rgb(250,216,89)" stroke-width="6.00"/>
	<line x1="90.00" y1="295.68" x2="88.00" y2="289.96" stroke="rgb(250,216,89)" stroke-width="6.00"/>
	<line x1="88.00" y1="190.04" x2="86.00" y2="196.59" stroke="rgb(250,216,89)" stroke-width="6.00"/>
	<line x1="88.00" y1="289.96" x2="86.00" y2="283.41" stroke="rgb(250,216,89)" stroke-width="6.00"/>
	<line x1="86.00" y1="196.59" x2="84.00" y2="204.45" stroke="rgb(250,216,89)" stroke-width="6.00"/>
	<line x1="86.00" y1="283.41" x2="84.00" y2="275.55" stroke="rgb(250,216,89)" stroke-width="6.00"/>
	<line x1="84.00" y1="204.45" x2="82.00" y2="214.78" stroke="rgb(250,216,89)" stroke-width="6.00"/>
	<line x1="84.00" y1="275.55" x2="82.00" y2="265.22" stroke="rgb(250,216,89)" stroke-width="6.00"/>
	<line x1="82.00" y1="214.78" x2="80.00" y2="240.00" stroke="rgb(250,216,89)" stroke-width="6.00"/>
	<line x1="82.00" y1="265.22" x2="80.00" y2="240.00" stroke="rgb(250,216,89)" stroke-width="6.00"/>
</svg>