<svg version="1.1" xmlns="https://www.w3.org/2000/svg" width="360.00" height="360.00">
	<line x1="110.72" y1="60.00" x2="118.42" y2="64.44" stroke="rgb(68,108,179)" stroke-width="2.00"/>
	<line x1="118.42" y1="64.44" x2="125.34" y2="60.44" stroke="rgb(68,108,179)" stroke-width="2.00"/>
	<line x1="125.34" y1="60.44" x2="126.11" y2="68.89" stroke="rgb(68,108,179)" stroke-width="2.00"/>
	<line x1="126.11" y1="68.89" x2="133.81" y2="73.33" stroke="rgb(68,108,179)" stroke-width="2.00"/>
	<line x1="133.81" y1="73.33" x2="141.32" y2="69.00" stroke="rgb(68,108,179)" stroke-width="2.00"/>
	<line x1="141.32" y1="69.00" x2="141.32" y2="61.00" stroke="rgb(68,108,179)" stroke-width="2.00"/>
	<line x1="141.32" y1="61.00" x2="148.82" y2="64.67" stroke="rgb(68,108,179)" stroke-width="2.00"/>
	<line x1="148.82" y1="64.67" x2="156.33" y2="60.33" stroke="rgb(68,108,179)" stroke-width="2.00"/>
	<line x1="156.33" y1="60.33" x2="156.52" y2="69.11" stroke="rgb(68,108,179)" stroke-width="2.00"/>
	<line x1="156.52" y1="69.11" x2="163.54" y2="72.96" stroke="rgb(68,108,179)" stroke-width="2.00"/>
	<line x1="163.54" y1="72.96" x2="156.71" y2="77.89" stroke="rgb(68,108,179)" stroke-width="2.00"/>
	<line x1="156.71" y1="77.89" x2="156.91" y2="86.67" stroke="rgb(68,108,179)" stroke-width="2.00"/>
	<line x1="156.91" y1="86.67" x2="164.60" y2="91.11" stroke="rgb(68,108,179)" stroke-width="2.00"/>
	<line x1="164.60" y1="91.11" x2="171.53" y2="87.11" stroke="rgb(68,108,179)" stroke-width="2.00"/>
	<line x1="171.53" y1="87.11" x2="172.30" y2="95.56" stroke="rgb(68,108,179)" stroke-width="2.00"/>
	<line x1="172.30" y1="95.56" x2="180.00" y2="100.00" stroke="rgb(68,108,179)" stroke-width="2.00"/>
	<line x1="180.00" y1="100.00" x2="187.70" y2="95.56" stroke="rgb(68,108,179)" stroke-width="2.00"/>
	<line x1="187.70" y1="95.56" x2="187.70" y2="87.56" stroke="rgb(68,108,179)" stroke-width="2.00"/>
	<line x1="187.70" y1="87.56" x2="195.40" y2="91.11" stroke="rgb(68,108,179)" stroke-width="2.00"/>
	<line x1="195.40" y1="91.11" x2="203.09" y2="86.67" stroke="rgb(68,108,179)" stroke-width="2.00"/>
	<line x1="203.09" y1="86.67" x2="203.09" y2="78.00" stroke="rgb(68,108,179)" stroke-width="2.00"/>
	<line x1="203.09" y1="78.00" x2="196.17" y2="74.00" stroke="rgb(68,108,179)" stroke-width="2.00"/>
	<line x1="196.17" y1="74.00" x2="203.09" y2="69.33" stroke="rgb(68,108,179)" stroke-width="2.00"/>
	<line x1="203.09" y1="69.33" x2="203.09" y2="60.67" stroke="rgb(68,108,179)" stroke-width="2.00"/>
	<line x1="203.09" y1="60.67" x2="210.79" y2="64.89" stroke="rgb(68,108,179)" stroke-width="2.00"/>
	<line x1="210.79" y1="64.89" x2="217.63" y2="60.74" stroke="rgb(68,108,179)" stroke-width="2.00"/>
	<line x1="217.63" y1="60.74" x2="218.49" y2="69.11" stroke="rgb(68,108,179)" stroke-width="2.00"/>
	<line x1="218.49" y1="69.11" x2="226.19" y2="73.33" stroke="rgb(68,108,179)" stroke-width="2.00"/>
	<line x1="226.19" y1="73.33" x2="233.89" y2="68.89" stroke="rgb(68,108,179)" stroke-width="2.00"/>
	<line x1="233.89" y1="68.89" x2="233.89" y2="60.89" stroke="rgb(68,108,179)" stroke-width="2.00"/>
	<line x1="233.89" y1="60.89" x2="241.58" y2="64.44" stroke="rgb(68,108,179)" stroke-width="2.00"/>
	<line x1="241.58" y1="64.44" x2="249.28" y2="60.00" stroke="rgb(68,108,179)" stroke-width="2.00"/>
	<line x1="249.28" y1="60.00" x2="249.28" y2="68.89" stroke="rgb(68,108,179)" stroke-width="2.00"/>
	<line x1="249.28" y1="68.89" x2="256.21" y2="72.89" stroke="rgb(68,108,179)" stroke-width="2.00"/>
	<line x1="256.21" y1="72.89" x2="249.28" y2="77.78" stroke="rgb(68,108,179)" stroke-width="2.00"/>
	<line x1="249.28" y1="77.78" x2="249.28" y2="86.67" stroke="rgb(68,108,179)" stroke-width="2.00"/>
	<line x1="249.28" y1="86.67" x2="256.79" y2="91.00" stroke="rgb(68,108,179)" stroke-width="2.00"/>
	<line x1="256.79" y1="91.00" x2="263.72" y2="87.00" stroke="rgb(68,108,179)" stroke-width="2.00"/>
	<line x1="263.72" y1="87.00" x2="264.29" y2="95.33" stroke="rgb(68,108,179)" stroke-width="2.00"/>
	<line x1="264.29" y1="95.33" x2="271.80" y2="99.67" stroke="rgb(68,108,179)" stroke-width="2.00"/>
	<line x1="271.80" y1="99.67" x2="264.29" y2="104.22" stroke="rgb(68,108,179)" stroke-width="2.00"/>
	<line x1="264.29" y1="104.22" x2="264.47" y2="112.22" stroke="rgb(68,108,179)" stroke-width="2.00"/>
	<line x1="264.47" y1="112.22" x2="256.79" y2="108.78" stroke="rgb(68,108,179)" stroke-width="2.00"/>
	<line x1="256.79" y1="108.78" x2="249.28" y2="113.33" stroke="rgb(68,108,179)" stroke-width="2.00"/>
	<line x1="249.28" y1="113.33" x2="249.28" y2="122.22" stroke="rgb(68,108,179)" stroke-width="2.00"/>
	<line x1="249.28" y1="122.22" x2="256.21" y2="126.22" stroke="rgb(68,108,179)" stroke-width="2.00"/>
	<line x1="256.21" y1="126.22" x2="249.28" y2="131.11" stroke="rgb(68,108,179)" stroke-width="2.00"/>
	<line x1="249.28" y1="131.11" x2="249.28" y2="140.00" stroke="rgb(68,108,179)" stroke-width="2.00"/>
	<line x1="249.28" y1="140.00" x2="256.98" y2="144.44" stroke="rgb(68,108,179)" stroke-width="2.00"/>
	<line x1="256.98" y1="144.44" x2="263.91" y2="140.44" stroke="rgb(68,108,179)" stroke-width="2.00"/>
	<line x1="263.91" y1="140.44" x2="264.68" y2="148.89" stroke="rgb(68,108,179)" stroke-width="2.00"/>
	<line x1="264.68" y1="148.89" x2="272.38" y2="153.33" stroke="rgb(68,108,179)" stroke-width="2.00"/>
	<line x1="272.38" y1="153.33" x2="279.88" y2="149.00" stroke="rgb(68,108,179)" stroke-width="2.00"/>
	<line x1="279.88" y1="149.00" x2="279.88" y2="141.00" stroke="rgb(68,108,179)" stroke-width="2.00"/>
	<line x1="279.88" y1="141.00" x2="287.39" y2="144.67" stroke="rgb(68,108,179)" stroke-width="2.00"/>
	<line x1="287.39" y1="144.67" x2="294.89" y2="140.33" stroke="rgb(68,108,179)" stroke-width="2.00"/>
	<line x1="294.89" y1="140.33" x2="295.09" y2="149.11" stroke="rgb(68,108,179)" stroke-width="2.00"/>
	<line x1="295.09" y1="149.11" x2="302.10" y2="152.96" stroke="rgb(68,108,179)" stroke-width="2.00"/>
	<line x1="302.10" y1="152.96" x2="295.28" y2="157.89" stroke="rgb(68,108,179)" stroke-width="2.00"/>
	<line x1="295.28" y1="157.89" x2="295.47" y2="166.67" stroke="rgb(68,108,179)" stroke-width="2.00"/>
	<line x1="295.47" y1="166.67" x2="303.17" y2="171.11" stroke="rgb(68,108,179)" stroke-width="2.00"/>
	<line x1="303.17" y1="171.11" x2="310.10" y2="167.11" stroke="rgb(68,108,179)" stroke-width="2.00"/>
	<line x1="310.10" y1="167.11" x2="310.87" y2="175.56" stroke="rgb(68,108,179)" stroke-width="2.00"/>
	<line x1="310.87" y1="175.56" x2="318.56" y2="180.00" stroke="rgb(68,108,179)" stroke-width="2.00"/>
	<line x1="318.56" y1="180.00" x2="310.87" y2="184.44" stroke="rgb(68,108,179)" stroke-width="2.00"/>
	<line x1="310.87" y1="184.44" x2="310.87" y2="192.44" stroke="rgb(68,108,179)" stroke-width="2.00"/>
	<line x1="310.87" y1="192.44" x2="303.17" y2="188.89" stroke="rgb(68,108,179)" stroke-width="2.00"/>
	<line x1="303.17" y1="188.89" x2="295.47" y2="193.33" stroke="rgb(68,108,179)" stroke-width="2.00"/>
	<line x1="295.47" y1="193.33" x2="295.47" y2="202.00" stroke="rgb(68,108,179)" stroke-width="2.00"/>
	<line x1="295.47" y1="202.00" x2="302.40" y2="206.00" stroke="rgb(68,108,179)" stroke-width="2.00"/>
	<line x1="302.40" y1="206.00" x2="295.47" y2="210.67" stroke="rgb(68,108,179)" stroke-width="2.00"/>
	<line x1="295.47" y1="210.67" x2="295.47" y2="219.33" stroke="rgb(68,108,179)" stroke-width="2.00"/>
	<line x1="295.47" y1="219.33" x2="287.77" y2="215.11" stroke="rgb(68,108,179)" stroke-width="2.00"/>
	<line x1="287.77" y1="215.11" x2="280.93" y2="219.26" stroke="rgb(68,108,179)" stroke-width="2.00"/>
	<line x1="280.93" y1="219.26" x2="280.07" y2="210.89" stroke="rgb(68,108,179)" stroke-width="2.00"/>
	<line x1="280.07" y1="210.89" x2="272.38" y2="206.67" stroke="rgb(68,108,179)" stroke-width="2.00"/>
	<line x1="272.38" y1="206.67" x2="264.68" y2="211.11" stroke="rgb(68,108,179)" stroke-width="2.00"/>
	<line x1="264.68" y1="211.11" x2="264.68" y2="219.11" stroke="rgb(68,108,179)" stroke-width="2.00"/>
	<line x1="264.68" y1="219.11" x2="256.98" y2="215.56" stroke="rgb(68,108,179)" stroke-width="2.00"/>
	<line x1="256.98" y1="215.56" x2="249.28" y2="220.00" stroke="rgb(68,108,179)" stroke-width="2.00"/>
	<line x1="249.28" y1="220.00" x2="249.28" y2="228.89" stroke="rgb(68,108,179)" stroke-width="2.00"/>
	<line x1="249.28" y1="228.89" x2="256.21" y2="232.89" stroke="rgb(68,108,179)" stroke-width="2.00"/>
	<line x1="256.21" y1="232.89" x2="249.28" y2="237.78" stroke="rgb(68,108,179)" stroke-width="2.00"/>
	<line x1="249.28" y1="237.78" x2="249.28" y2="246.67" stroke="rgb(68,108,179)" stroke-width="2.00"/>
	<line x1="249.28" y1="246.67" x2="256.79" y2="251.00" stroke="rgb(68,108,179)" stroke-width="2.00"/>
	<line x1="256.79" y1="251.00" x2="263.72" y2="247.00" stroke="rgb(68,108,179)" stroke-width="2.00"/>
	<line x1="263.72" y1="247.00" x2="264.29" y2="255.33" stroke="rgb(68,108,179)" stroke-width="2.00"/>
	<line x1="264.29" y1="255.33" x2="271.80" y2="259.67" stroke="rgb(68,108,179)" stroke-width="2.00"/>
	<line x1="271.80" y1="259.67" x2="264.29" y2="264.22" stroke="rgb(68,108,179)" stroke-width="2.00"/>
	<line x1="264.29" y1="264.22" x2="264.47" y2="272.22" stroke="rgb(68,108,179)" stroke-width="2.00"/>
	<line x1="264.47" y1="272.22" x2="256.79" y2="268.78" stroke="rgb(68,108,179)" stroke-width="2.00"/>
	<line x1="256.79" y1="268.78" x2="249.28" y2="273.33" stroke="rgb(68,108,179)" stroke-width="2.00"/>
	<line x1="249.28" y1="273.33" x2="249.28" y2="282.22" stroke="rgb(68,108,179)" stroke-width="2.00"/>
	<line x1="249.28" y1="282.22" x2="256.21" y2="286.22" stroke="rgb(68,108,179)" stroke-width="2.00"/>
	<line x1="256.21" y1="286.22" x2="249.28" y2="291.11" stroke="rgb(68,108,179)" stroke-width="2.00"/>
	<line x1="249.28" y1="291.11" x2="249.28" y2="300.00" stroke="rgb(68,108,179)" stroke-width="2.00"/>
	<line x1="249.28" y1="300.00" x2="241.58" y2="295.56" stroke="rgb(68,108,179)" stroke-width="2.00"/>
	<line x1="241.58" y1="295.56" x2="234.66" y2="299.56" stroke="rgb(68,108,179)" stroke-width="2.00"/>
	<line x1="234.66" y1="299.56" x2="233.89" y2="291.11" stroke="rgb(68,108,179)" stroke-width="2.00"/>
	<line x1="233.89" y1="291.11" x2="226.19" y2="286.67" stroke="rgb(68,108,179)" stroke-width="2.00"/>
	<line x1="226.19" y1="286.67" x2="218.68" y2="291.00" stroke="rgb(68,108,179)" stroke-width="2.00"/>
	<line x1="218.68" y1="291.00" x2="218.68" y2="299.00" stroke="rgb(68,108,179)" stroke-width="2.00"/>
	<line x1="218.68" y1="299.00" x2="211.18" y2="295.33" stroke="rgb(68,108,179)" stroke-width="2.00"/>
	<line x1="211.18" y1="295.33" x2="203.67" y2="299.67" stroke="rgb(68,108,179)" stroke-width="2.00"/>
	<line x1="203.67" y1="299.67" x2="203.48" y2="290.89" stroke="rgb(68,108,179)" stroke-width="2.00"/>
	<line x1="203.48" y1="290.89" x2="196.46" y2="287.04" stroke="rgb(68,108,179)" stroke-width="2.00"/>
	<line x1="196.46" y1="287.04" x2="203.29" y2="282.11" stroke="rgb(68,108,179)" stroke-width="2.00"/>
	<line x1="203.29" y1="282.11" x2="203.09" y2="273.33" stroke="rgb(68,108,179)" stroke-width="2.00"/>
	<line x1="203.09" y1="273.33" x2="195.40" y2="268.89" stroke="rgb(68,108,179)" stroke-width="2.00"/>
	<line x1="195.40" y1="268.89" x2="188.47" y2="272.89" stroke="rgb(68,108,179)" stroke-width="2.00"/>
	<line x1="188.47" y1="272.89" x2="187.70" y2="264.44" stroke="rgb(68,108,179)" stroke-width="2.00"/>
	<line x1="187.70" y1="264.44" x2="180.00" y2="260.00" stroke="rgb(68,108,179)" stroke-width="2.00"/>
	<line x1="180.00" y1="260.00" x2="172.30" y2="264.44" stroke="rgb(68,108,179)" stroke-width="2.00"/>
	<line x1="172.30" y1="264.44" x2="172.30" y2="272.44" stroke="rgb(68,108,179)" stroke-width="2.00"/>
	<line x1="172.30" y1="272.44" x2="164.60" y2="268.89" stroke="rgb(68,108,179)" stroke-width="2.00"/>
	<line x1="164.60" y1="268.89" x2="156.91" y2="273.33" stroke="rgb(68,108,179)" stroke-width="2.00"/>
	<line x1="156.91" y1="273.33" x2="156.91" y2="282.00" stroke="rgb(68,108,179)" stroke-width="2.00"/>
	<line x1="156.91" y1="282.00" x2="163.83" y2="286.00" stroke="rgb(68,108,179)" stroke-width="2.00"/>
	<line x1="163.83" y1="286.00" x2="156.91" y2="290.67" stroke="rgb(68,108,179)" stroke-width="2.00"/>
	<line x1="156.91" y1="290.67" x2="156.91" y2="299.33" stroke="rgb(68,108,179)" stroke-width="2.00"/>
	<line x1="156.91" y1="299.33" x2="149.21" y2="295.11" stroke="rgb(68,108,179)" stroke-width="2.00"/>
	<line x1="149.21" y1="295.11" x2="142.37" y2="299.26" stroke="rgb(68,108,179)" stroke-width="2.00"/>
	<line x1="142.37" y1="299.26" x2="141.51" y2="290.89" stroke="rgb(68,108,179)" stroke-width="2.00"/>
	<line x1="141.51" y1="290.89" x2="133.81" y2="286.67" stroke="rgb(68,108,179)" stroke-width="2.00"/>
	<line x1="133.81" y1="286.67" x2="126.11" y2="291.11" stroke="rgb(68,108,179)" stroke-width="2.00"/>
	<line x1="126.11" y1="291.11" x2="126.11" y2="299.11" stroke="rgb(68,108,179)" stroke-width="2.00"/>
	<line x1="126.11" y1="299.11" x2="118.42" y2="295.56" stroke="rgb(68,108,179)" stroke-width="2.00"/>
	<line x1="118.42" y1="295.56" x2="110.72" y2="300.00" stroke="rgb(68,108,179)" stroke-width="2.00"/>
	<line x1="110.72" y1="300.00" x2="110.72" y2="291.11" stroke="rgb(68,108,179)" stroke-width="2.00"/>
	<line x1="110.72" y1="291.11" x2="103.79" y2="287.11" stroke="rgb(68,108,179)" stroke-width="2.00"/>
	<line x1="103.79" y1="287.11" x2="110.72" y2="282.22" stroke="rgb(68,108,179)" stroke-width="2.00"/>
	<line x1="110.72" y1="282.22" x2="110.72" y2="273.33" stroke="rgb(68,108,179)" stroke-width="2.00"/>
	<line x1="110.72" y1="273.33" x2="103.21" y2="269.00" stroke="rgb(68,108,179)" stroke-width="2.00"/>
	<line x1="103.21" y1="269.00" x2="96.28" y2="273.00" stroke="rgb(68,108,179)" stroke-width="2.00"/>
	<line x1="96.28" y1="273.00" x2="95.71" y2="264.67" stroke="rgb(68,108,179)" stroke-width="2.00"/>
	<line x1="95.71" y1="264.67" x2="88.20" y2="260.33" stroke="rgb(68,108,179)" stroke-width="2.00"/>
	<line x1="88.20" y1="260.33" x2="95.71" y2="255.78" stroke="rgb(68,108,179)" stroke-width="2.00"/>
	<line x1="95.71" y1="255.78" x2="95.53" y2="247.78" stroke="rgb(68,108,179)" stroke-width="2.00"/>
	<line x1="95.53" y1="247.78" x2="103.21" y2="251.22" stroke="rgb(68,108,179)" stroke-width="2.00"/>
	<line x1="103.21" y1="251.22" x2="110.72" y2="246.67" stroke="rgb(68,108,179)" stroke-width="2.00"/>
	<line x1="110.72" y1="246.67" x2="110.72" y2="237.78" stroke="rgb(68,108,179)" stroke-width="2.00"/>
	<line x1="110.72" y1="237.78" x2="103.79" y2="233.78" stroke="rgb(68,108,179)" stroke-width="2.00"/>
	<line x1="103.79" y1="233.78" x2="110.72" y2="228.89" stroke="rgb(68,108,179)" stroke-width="2.00"/>
	<line x1="110.72" y1="228.89" x2="110.72" y2="220.00" stroke="rgb(68,108,179)" stroke-width="2.00"/>
	<line x1="110.72" y1="220.00" x2="103.02" y2="215.56" stroke="rgb(68,108,179)" stroke-width="2.00"/>
	<line x1="103.02" y1="215.56" x2="96.09" y2="219.56" stroke="rgb(68,108,179)" stroke-width="2.00"/>
	<line x1="96.09" y1="219.56" x2="95.32" y2="211.11" stroke="rgb(68,108,179)" stroke-width="2.00"/>
	<line x1="95.32" y1="211.11" x2="87.62" y2="206.67" stroke="rgb(68,108,179)" stroke-width="2.00"/>
	<line x1="87.62" y1="206.67" x2="80.12" y2="211.00" stroke="rgb(68,108,179)" stroke-width="2.00"/>
	<line x1="80.12" y1="211.00" x2="80.12" y2="219.00" stroke="rgb(68,108,179)" stroke-width="2.00"/>
	<line x1="80.12" y1="219.00" x2="72.61" y2="215.33" stroke="rgb(68,108,179)" stroke-width="2.00"/>
	<line x1="72.61" y1="215.33" x2="65.11" y2="219.67" stroke="rgb(68,108,179)" stroke-width="2.00"/>
	<line x1="65.11" y1="219.67" x2="64.91" y2="210.89" stroke="rgb(68,108,179)" stroke-width="2.00"/>
	<line x1="64.91" y1="210.89" x2="57.90" y2="207.04" stroke="rgb(68,108,179)" stroke-width="2.00"/>
	<line x1="57.90" y1="207.04" x2="64.72" y2="202.11" stroke="rgb(68,108,179)" stroke-width="2.00"/>
	<line x1="64.72" y1="202.11" x2="64.53" y2="193.33" stroke="rgb(68,108,179)" stroke-width="2.00"/>
	<line x1="64.53" y1="193.33" x2="56.83" y2="188.89" stroke="rgb(68,108,179)" stroke-width="2.00"/>
	<line x1="56.83" y1="188.89" x2="49.90" y2="192.89" stroke="rgb(68,108,179)" stroke-width="2.00"/>
	<line x1="49.90" y1="192.89" x2="49.13" y2="184.44" stroke="rgb(68,108,179)" stroke-width="2.00"/>
	<line x1="49.13" y1="184.44" x2="41.44" y2="180.00" stroke="rgb(68,108,179)" stroke-width="2.00"/>
	<line x1="41.44" y1="180.00" x2="49.13" y2="175.56" stroke="rgb(68,108,179)" stroke-width="2.00"/>
	<line x1="49.13" y1="175.56" x2="49.13" y2="167.56" stroke="rgb(68,108,179)" stroke-width="2.00"/>
	<line x1="49.13" y1="167.56" x2="56.83" y2="171.11" stroke="rgb(68,108,179)" stroke-width="2.00"/>
	<line x1="56.83" y1="171.11" x2="64.53" y2="166.67" stroke="rgb(68,108,179)" stroke-width="2.00"/>
	<line x1="64.53" y1="166.67" x2="64.53" y2="158.00" stroke="rgb(68,108,179)" stroke-width="2.00"/>
	<line x1="64.53" y1="158.00" x2="57.60" y2="154.00" stroke="rgb(68,108,179)" stroke-width="2.00"/>
	<line x1="57.60" y1="154.00" x2="64.53" y2="149.33" stroke="rgb(68,108,179)" stroke-width="2.00"/>
	<line x1="64.53" y1="149.33" x2="64.53" y2="140.67" stroke="rgb(68,108,179)" stroke-width="2.00"/>
	<line x1="64.53" y1="140.67" x2="72.23" y2="144.89" stroke="rgb(68,108,179)" stroke-width="2.00"/>
	<line x1="72.23" y1="144.89" x2="79.07" y2="140.74" stroke="rgb(68,108,179)" stroke-width="2.00"/>
	<line x1="79.07" y1="140.74" x2="79.93" y2="149.11" stroke="rgb(68,108,179)" stroke-width="2.00"/>
	<line x1="79.93" y1="149.11" x2="87.62" y2="153.33" stroke="rgb(68,108,179)" stroke-width="2.00"/>
	<line x1="87.62" y1="153.33" x2="95.32" y2="148.89" stroke="rgb(68,108,179)" stroke-width="2.00"/>
	<line x1="95.32" y1="148.89" x2="95.32" y2="140.89" stroke="rgb(68,108,179)" stroke-width="2.00"/>
	<line x1="95.32" y1="140.89" x2="103.02" y2="144.44" stroke="rgb(68,108,179)" stroke-width="2.00"/>
	<line x1="103.02" y1="144.44" x2="110.72" y2="140.00" stroke="rgb(68,108,179)" stroke-width="2.00"/>
	<line x1="110.72" y1="140.00" x2="110.72" y2="131.11" stroke="rgb(68,108,179)" stroke-width="2.00"/>
	<line x1="110.72" y1="131.11" x2="103.79" y2="127.11" stroke="rgb(68,108,179)" stroke-width="2.00"/>
	<line x1="103.79" y1="127.11" x2="110.72" y2="122.22" stroke="rgb(68,108,179)" stroke-width="2.00"/>
	<line x1="110.72" y1="122.22" x2="110.72" y2="113.33" stroke="rgb(68,108,179)" stroke-width="2.00"/>
	<line x1="110.72" y1="113.33" x2="103.21" y2="109.00" stroke="rgb(68,108,179)" stroke-width="2.00"/>
	<line x1="103.21" y1="109.00" x2="96.28" y2="113.00" stroke="rgb(68,108,179)" stroke-width="2.00"/>
	<line x1="96.28" y1="113.00" x2="95.71" y2="104.67" stroke="rgb(68,108,179)" stroke-width="2.00"/>
	<line x1="95.71" y1="104.67" x2="88.20" y2="100.33" stroke="rgb(68,108,179)" stroke-width="2.00"/>
	<line x1="88.20" y1="100.33" x2="95.71" y2="95.78" stroke="rgb(68,108,179)" stroke-width="2.00"/>
	<line x1="95.71" y1="95.78" x2="95.53" y2="87.78" stroke="rgb(68,108,179)" stroke-width="2.00"/>
	<line x1="95.53" y1="87.78" x2="103.21" y2="91.22" stroke="rgb(68,108,179)" stroke-width="2.00"/>
	<line x1="103.21" y1="91.22" x2="110.72" y2="86.67" stroke="rgb(68,108,179)" stroke-width="2.00"/>
	<line x1="110.72" y1="86.67" x2="110.72" y2="77.78" stroke="rgb(68,108,179)" stroke-width="2.00"/>
	<line x1="110.72" y1="77.78" x2="103.79" y2="73.78" stroke="rgb(68,108,179)" stroke-width="2.00"/>
	<line x1="103.79" y1="73.78" x2="110.72" y2="68.89" stroke="rgb(68,108,179)" stroke-width="2.00"/>
	<line x1="110.72" y1="68.89" x2="110.72" y2="60.00" stroke="rgb(68,108,179)" stroke-width="2.00"/>
</svg>